<svg width="96.000000" height="33.000000" viewBox="0 0 96 33" fill="none" xmlns="http://www.w3.org/2000/svg" xmlns:xlink="http://www.w3.org/1999/xlink">
	<desc>
			Created with Pixso.
	</desc>
	<defs/>
	<path id="Combined Shape" d="M15.1028 16.0795L19.303 16.0795L19.303 21.9135C17.9924 22.3299 16.3379 22.5583 14.6177 22.5583C7.64648 22.5583 3.54956 16.6547 3.54956 10.889C3.54956 5.23419 7.25537 1.26764 12.4258 1.26764C15.6973 1.26764 17.6011 2.36377 19.3042 3.89062L19.3042 5.79401L22.4976 2.63586C20.4778 1.28442 17.553 0 13.3723 0C4.19482 0 0 6.49304 0 11.8292C0 19.4245 5.59399 24 12.624 24C16.0327 24 19.0591 23.4855 22.5552 22.5234L22.5552 16.496C22.5552 16.1879 22.6921 15.9764 22.8967 15.7906L24 14.6997L16.5085 14.6997L15.1028 16.0795ZM81.03 23L74.6633 23L75.8298 21.8458C76.0212 21.6494 76.1104 21.4581 76.1104 21.177L76.1104 1.40271L74 1.40271L75.4131 0L80.8428 0L79.6943 1.13983C79.5659 1.26227 79.3901 1.4549 79.3901 1.83093L79.3901 20.9208C79.3901 21.3294 79.6824 21.751 80.1741 21.8109L82 22.0372L81.03 23ZM25 15.6061C25 11.6897 28.2185 8 33.4128 8L33.4128 8.00134C37.97 8.00134 41 11.6061 41 15.3181C41 19.3031 37.8994 23 32.8462 23C27.5928 23 25 18.9865 25 15.6061ZM43 15.6061C43 11.6897 46.2185 8 51.4128 8L51.4128 8.00134C55.97 8.00134 59 11.6061 59 15.3181C59 19.3031 55.8994 23 50.8462 23C45.5928 23 43 18.9865 43 15.6061ZM60.6604 14.1281C60.6604 10.8954 63.032 8 67.416 8L67.416 8.00024L73.9133 8.00024L72.595 9.37555L70.8403 9.37555C72.2776 10.6501 72.9084 12.0112 72.9084 13.5933C72.9084 15.8994 71.6606 17.0548 70.7773 17.8355C70.6162 17.9855 70.1851 18.2983 69.9358 18.5723C69.7947 18.7402 69.4092 19.185 69.4092 19.8571C69.4092 20.3264 69.5593 20.7256 70.3325 21.3525C72.9617 23.4077 74 24.5995 74 26.7736C74 29.8576 71.1899 33 65.7639 33C61.1809 33 59 30.6617 59 28.2858C59 25.5727 61.4111 23.0483 67.4106 22.6669C66.7764 21.9172 66.4778 21.4301 66.4778 20.5626C66.479 19.9745 66.7192 19.3657 66.7192 19.3657L65.8372 19.3657C62.3506 19.3657 60.6604 16.5892 60.6604 14.1281ZM89.4207 8C85.8225 8 82 10.5765 82 15.2021C82 19.0224 84.7424 23 89.8665 23C91.144 23 92.1963 22.8456 93.1821 22.4205C94.2395 21.9631 95.2571 21.2202 96 20.2866C94.5977 20.9509 93.4541 21.3872 91.9348 21.3872C89.0476 21.3872 86.2642 19.4302 85.2903 15.8329L95.4893 11.9601C94.9001 9.987 93.239 8 89.4219 8L89.4207 8ZM66.2065 9.02887C67.002 9.02887 67.666 9.32233 68.3674 9.93109C69.1455 10.6627 70.3884 12.6287 70.3884 15.0614C70.3884 17.6866 68.4331 18.4053 67.375 18.4053C66.8572 18.4053 66.2363 18.2541 65.7109 17.8792C64.5437 17.0896 63.3853 14.9877 63.3853 12.4866C63.3853 10.2297 64.6738 9.02887 66.2065 9.02887ZM92.0808 11.7182C92.0808 10.5503 90.6851 9.05823 88.7544 9.05823C87.4783 9.05823 84.8911 9.95697 84.8911 13.3187C84.8911 14.1202 85.0608 14.8618 85.0608 14.8618L91.3298 12.4798C91.8289 12.2953 92.0808 12.0959 92.0808 11.7182ZM32.551 9.07568C36.2134 9.07568 37.8442 13.7138 37.8442 17.0219C37.8442 21.9418 34.0474 22.039 33.5935 22.039C31.8562 22.039 30.6418 21.0182 29.7329 19.6794C28.9326 18.4456 28.1504 16.1531 28.1504 13.9133C28.1504 11.6821 28.9019 10.5927 30.0842 9.7912C31.051 9.19037 31.9563 9.07568 32.5498 9.07568L32.551 9.07568ZM50.551 9.07568C54.2134 9.07568 55.8442 13.7138 55.8442 17.0219C55.8442 21.9418 52.0474 22.039 51.5935 22.039C49.8562 22.039 48.6418 21.0182 47.7329 19.6794C46.9326 18.4456 46.1504 16.1531 46.1504 13.9133C46.1504 11.6821 46.9019 10.5927 48.0842 9.7912C49.051 9.19037 49.9563 9.07568 50.5498 9.07568L50.551 9.07568ZM68.5173 23.6921C68.5173 23.6921 68.2769 23.6635 67.9424 23.6635C63.4409 23.7293 61.8003 25.5004 61.8003 27.5583C61.8003 30.0425 64.1943 31.564 67.3267 31.564C70.1802 31.564 71.9421 30.0103 71.9421 28.0287C71.9421 26.5873 71.1418 25.7782 69.8582 24.7196C69.3066 24.2802 68.5173 23.6921 68.5173 23.6921Z" clip-rule="evenodd" fill="#FFFFFF" fill-opacity="1.000000" fill-rule="evenodd"/>
</svg>
