<svg width="140.000000" height="27.000000" viewBox="0 0 140 27" fill="none" xmlns="http://www.w3.org/2000/svg" xmlns:xlink="http://www.w3.org/1999/xlink">
	<desc>
			Created with Pixso.
	</desc>
	<defs/>
	<path id="Combined Shape" d="M18.3262 0L12 18.0009L12 18.0016L14.6716 18.0016L17.7646 9.33771L18.6079 9.33771C19.1694 9.33771 19.1694 9.75415 19.0762 10.2178L16.3113 18.0016L19.0762 18.0016C19.0762 18.0016 21.4661 11.423 21.8882 10.0328C22.3093 8.64258 21.4661 7.94751 19.8257 7.94751L18.2322 7.94751L21.0439 0L18.3262 0ZM39.4573 0L22.8513 0L22.0972 2.02118C28.6814 2.33582 33.9153 7.32367 33.9153 13.4299C33.9153 19.1057 29.3931 23.8147 23.468 24.7038L22.7571 26.8727L39.4573 26.8727C40.3931 26.8764 41.2915 26.5007 41.9546 25.8285C42.6177 25.1564 42.9905 24.2432 42.9907 23.2905L42.9907 3.57001C42.9907 1.58081 41.4082 0 39.4573 0ZM17.4634 24.4409C12.571 22.838 9.05396 18.4277 9.05396 13.4307C9.05396 9.03784 12.1086 4.60461 16.186 2.40057L17.0332 0.000732422L3.52539 0.000732422C1.57739 0.00372314 0 1.61224 0 3.59515L0 23.2639C0 25.2477 1.57812 26.8727 3.52539 26.8727L16.6096 26.8727L17.4634 24.4409ZM139.317 0.786255C138.883 0.334045 138.285 0.0836182 137.664 0.093689C137.021 0.093689 136.474 0.325317 136.02 0.786255C135.583 1.21796 135.337 1.81097 135.337 2.42981C135.337 2.44086 135.338 2.45197 135.338 2.46307C135.338 3.1236 135.563 3.68506 136.014 4.14905C136.467 4.6153 137.017 4.84766 137.664 4.84766C138.31 4.84766 138.862 4.6145 139.317 4.14905C139.754 3.71448 140 3.1192 140 2.49835C140 2.48663 140 2.47485 140 2.46307C140 1.80713 139.771 1.24792 139.317 0.786255ZM84.3533 9.17572C84.4956 9.7052 85.1794 10.787 85.8882 10.787L85.8882 10.7878L87.304 10.7878L90.7036 0.156189L88.2947 0.156189L86.0759 7.42041L83.7158 0.204163L81.4507 0.204163L79.0903 7.42041L76.8701 0.156189L74.4629 0.156189L77.3423 9.15289C77.4839 9.68158 78.0981 10.7878 78.8069 10.7878L80.2698 10.7878L82.5835 3.61957L84.3533 9.17572ZM130.897 10.7833L130.897 2.37012L134.412 2.37012L134.412 0.158447L125.023 0.158447L125.023 2.37012L128.491 2.37012L128.491 10.7833L130.897 10.7833ZM119.782 10.7764L119.782 2.37469L123.294 2.37469L123.294 0.165344L113.914 0.165344L113.914 2.37469L117.379 2.37469L117.379 10.7764L119.782 10.7764ZM73.104 0.16687L65.0933 0.16687C64.0088 0.16687 63.4438 0.790771 63.4438 1.75153L63.4438 9.38446C63.4438 10.0084 64.0088 10.7764 64.9517 10.7764L73.104 10.7764L73.104 8.56854L65.8467 8.56854L65.8467 6.55267L71.8789 6.55267L71.8789 4.34485L65.8467 4.34485L65.8467 2.37695L73.104 2.37695L73.104 0.16687ZM112.153 0.171387L104.148 0.171387C103.063 0.171387 102.499 0.794617 102.499 1.75452L102.499 9.37988C102.499 10.0038 103.063 10.7711 104.006 10.7711L112.153 10.7711L112.153 8.56476L104.901 8.56476L104.901 6.55042L110.929 6.55042L110.929 4.34406L104.901 4.34406L104.901 2.37695L112.153 2.37695L112.153 0.171387ZM49.9143 0.173706L49.9143 10.7687L52.3149 10.7687L52.3149 6.54962L58.5752 6.54962L58.5752 10.7687L60.9758 10.7687L60.9758 0.173706L58.5752 0.173706L58.5752 4.34485L52.3149 4.34485L52.3149 0.173706L49.9143 0.173706ZM92.4463 0.17749L92.4463 9.18414C92.4463 9.99854 93.0586 10.765 94.1406 10.765L101.199 10.765L101.199 8.56091L94.8469 8.56091L94.8469 0.17749L92.4463 0.17749ZM137.664 4.52081C138.199 4.52985 138.714 4.31177 139.084 3.91895C139.475 3.51746 139.67 3.03217 139.67 2.46228C139.67 1.89703 139.475 1.41473 139.085 1.01556C138.694 0.614807 138.219 0.413696 137.665 0.413696C137.111 0.413696 136.638 0.614807 136.247 1.01556C135.857 1.41473 135.663 1.89703 135.663 2.46228C135.662 2.47485 135.662 2.48743 135.662 2.49994C135.662 3.03253 135.871 3.5437 136.244 3.91895C136.614 4.31226 137.129 4.5304 137.664 4.52081ZM28.8323 7.90179L24.459 7.90179L18.1575 26L20.8381 26L23.6321 17.9987L26.1047 17.9987C28.0801 17.9987 28.4097 17.2542 28.7854 16.184L30.8076 10.5074C31.5129 8.59985 30.1484 7.90179 28.8323 7.90179ZM26.0579 15.8117C26.1047 15.5323 28.0801 9.99591 28.0801 9.99591C28.2209 9.62366 28.2678 9.29785 27.845 9.29785L26.6692 9.29785L24.1191 16.6026L25.3054 16.6026C25.7751 16.6026 26.0107 16.0911 26.0579 15.8117ZM68.1636 16.3729L65.0491 16.3729L60.188 27L62.7358 27L63.5859 25.0771L69.616 25.0771L70.4758 27L72.9302 27L68.1636 16.3729ZM120.525 22.8647C121.092 22.3832 121.469 21.6625 121.469 19.7388C121.469 17.5751 120.006 16.3729 118.308 16.3729L111.37 16.3729L111.37 26.9993L113.73 26.9993L113.73 23.8734L117.787 23.8734C118.732 23.8734 119.204 24.6428 119.204 25.0756L119.204 26.9985L121.469 26.9985L121.469 24.7868C121.469 24.1621 121.28 23.2494 120.525 22.8647ZM86.6104 16.3829L86.6104 26.9901L89.0146 26.9901L89.0146 22.5737L90.2395 22.5737L94.7146 26.9901L96.5054 26.9901L96.5054 25.5982L92.3118 21.3745L97.3545 16.3829L94.1504 16.3829L90.051 20.3666L89.0146 20.3666L89.0146 16.3829L86.6104 16.3829ZM57.4932 16.3889L49.9143 16.3889L49.9143 26.984L52.3149 26.984L52.3149 24.0112L57.4924 24.0112C58.9045 24.0112 60.5051 23.1968 60.5051 20.2241L60.5051 20.2222C60.5051 17.2038 58.7637 16.3889 57.4932 16.3889ZM134.47 19.6497C134.47 17.7808 133.529 16.3912 131.553 16.3912L123.838 16.3912L123.838 26.981L131.506 26.981C134.283 26.981 134.47 24.2497 134.47 22.7641L134.47 19.6497ZM104.812 16.3935L101.708 16.3935L97.5222 25.4938L97.5222 26.9786L99.4036 26.9786L100.25 25.0626L106.261 25.0626L107.118 26.9786L109.565 26.9786L104.812 16.3935ZM73.9839 18.887L73.9839 24.4851C73.9839 25.5853 74.6416 26.9733 76.428 26.9733L82.1616 26.9733C83.4771 26.9733 84.5569 26.0645 84.5569 24.4851L84.5569 23.5283L82.208 23.5283C82.208 24.0067 82.1128 24.7723 81.2202 24.7723L77.1321 24.7723C76.8499 24.7723 76.3809 24.5811 76.3809 23.8155L76.3809 19.6055C76.3809 19.6055 76.3733 19.5542 76.3733 19.4754C76.3733 19.2137 76.4568 18.6486 77.1785 18.6486L81.3145 18.6486C81.6902 18.6486 82.1121 19.3655 82.1609 19.8439L84.5562 19.8439L84.5562 18.9358C84.5562 18.0269 83.6648 16.4468 82.1609 16.3996L76.3801 16.3996C75.2522 16.3996 73.9839 17.6917 73.9839 18.887ZM66.6055 18.3439L64.5769 22.8647L68.5879 22.8647L66.6055 18.3439ZM103.26 18.3575L101.238 22.8601L105.274 22.8601L103.26 18.3575ZM113.729 21.6625L118.07 21.6625C118.968 21.6625 119.203 20.5563 119.203 20.0283C119.203 19.498 118.968 18.5853 117.787 18.5853L113.729 18.5853L113.729 21.6625ZM52.3149 21.8065L56.9282 21.8065C57.9639 21.8065 57.9639 20.704 57.9639 20.2249C57.9639 19.7457 57.9639 18.5945 56.7869 18.5945L52.3149 18.5945L52.3149 21.8065ZM132.071 23.0521L132.071 20.0329C132.073 20.0011 132.074 19.9691 132.074 19.937C132.074 19.2921 131.615 18.596 130.942 18.596L126.236 18.596L126.236 24.7769L130.753 24.7769C131.6 24.7769 132.071 23.9617 132.071 23.0521Z" clip-rule="evenodd" fill="#FFFFFF" fill-opacity="1.000000" fill-rule="evenodd"/>
</svg>
