<svg width="145.000000" height="31.000000" viewBox="0 0 145 31" fill="none" xmlns="http://www.w3.org/2000/svg" xmlns:xlink="http://www.w3.org/1999/xlink">
	<desc>
			Created with Pixso.
	</desc>
	<defs/>
	<path id="Combined Shape" d="M15 15L0 15L0 0L15 0L15 15ZM16 15L31 15L31 0L16 0L16 15ZM145 11.5398L145 14.0611L141.857 14.0611L141.857 20.2661C141.857 21.0613 142 21.6298 142.282 21.9549C142.562 22.277 143.011 22.4403 143.62 22.4403C143.781 22.4403 143.99 22.4052 144.24 22.3351C144.489 22.2664 144.702 22.1739 144.872 22.0607L145 21.9766L145 24.5211L144.959 24.5455C144.771 24.6523 144.454 24.7523 143.987 24.8524C143.528 24.95 143.079 24.9997 142.653 24.9997C140.056 24.9997 138.74 23.5909 138.74 20.811L138.74 14.0611L134.08 14.0611L134.08 24.6828L130.938 24.6828L130.938 14.0611L128.749 14.0611L128.749 11.5398L130.938 11.5398L130.938 9.72083C130.938 8.80688 131.14 7.98102 131.54 7.26599C131.94 6.55005 132.512 5.987 133.239 5.59259C133.966 5.19873 134.799 5 135.715 5C136.443 5 137.03 5.07782 137.461 5.2323L137.516 5.25226L137.516 7.90753L137.4 7.85596C136.937 7.65051 136.478 7.54639 136.034 7.54639C135.416 7.54639 134.932 7.7439 134.594 8.13232C134.253 8.52551 134.08 9.11505 134.08 9.88544L134.08 11.54L138.74 11.54L138.74 8.57001L138.798 8.55243L141.751 7.65265L141.856 7.62018L141.856 11.5398L145 11.5398ZM64.1812 6.45758C64.5471 6.11432 64.9927 5.9411 65.5037 5.9411C66.041 5.9411 66.4951 6.11945 66.853 6.47144C67.2114 6.8241 67.3931 7.25305 67.3931 7.74664C67.3931 8.25024 67.2063 8.67554 66.8379 9.01117C66.4719 9.34473 66.0232 9.51404 65.5037 9.51404C64.9841 9.51404 64.5371 9.34473 64.1755 9.01062C63.8113 8.67554 63.6272 8.25006 63.6272 7.74664C63.6272 7.23517 63.8135 6.80182 64.1812 6.45758ZM57.7593 24.6826L57.7593 10.5703L57.6572 10.5703L52.0359 24.6826L49.7893 24.6826L44.0789 10.5689L43.9768 10.5689L43.9768 24.6824L41 24.6824L41 6.34344L45.5625 6.34344L50.9705 19.9652L56.5427 6.34344L60.927 6.34344L60.927 24.6826L57.7593 24.6826ZM72.5059 12.1269C73.5862 11.5273 74.8562 11.2232 76.2803 11.2232C76.835 11.2232 77.4185 11.2853 78.0154 11.4086C78.6145 11.5322 79.0972 11.6951 79.4512 11.8925L79.4932 11.9161L79.4932 14.9005L79.363 14.8063C78.4226 14.1267 77.4285 13.7827 76.4082 13.7827C75.2156 13.7827 74.2361 14.1854 73.4971 14.9793C72.7559 15.7756 72.3799 16.8549 72.3799 18.1873C72.3799 19.5113 72.7405 20.5635 73.4517 21.3128C74.1614 22.0612 75.1392 22.4407 76.3569 22.4407C76.7957 22.4407 77.2957 22.3443 77.8442 22.1536C78.3943 21.9628 78.9055 21.6979 79.3628 21.366L79.4932 21.2712L79.4932 24.1035L79.4524 24.1268C78.4426 24.7061 77.1833 24.9999 75.7083 24.9999C74.4443 24.9999 73.3027 24.7234 72.3149 24.1783C71.3259 23.6324 70.5444 22.8454 69.9924 21.8394C69.4407 20.835 69.1614 19.6954 69.1614 18.4537C69.1614 17.036 69.4495 15.7648 70.0166 14.6766C70.5862 13.5857 71.4233 12.7278 72.5059 12.1269ZM91.5684 13.1107C92.7998 11.8582 94.5281 11.2232 96.7046 11.2232C98.7539 11.2232 100.379 11.8306 101.535 13.029C102.691 14.2268 103.276 15.8943 103.276 17.9844C103.276 20.1003 102.652 21.8173 101.421 23.0858C100.189 24.3555 98.4951 24.9995 96.3862 24.9995C94.3623 24.9995 92.7263 24.3884 91.5242 23.1821C90.322 21.9763 89.7122 20.3219 89.7122 18.2632C89.7122 16.0967 90.3369 14.3633 91.5684 13.1107ZM106.174 12.3438C107.109 11.6003 108.334 11.2232 109.814 11.2232C110.267 11.2232 110.787 11.2767 111.361 11.3828C111.938 11.4896 112.413 11.6212 112.773 11.775L112.822 11.7961L112.822 14.6544L112.694 14.567C112.304 14.3026 111.836 14.0864 111.304 13.9249C110.771 13.7635 110.235 13.6811 109.712 13.6811C109.148 13.6811 108.698 13.8079 108.375 14.0571C108.054 14.3051 107.898 14.6113 107.898 14.9935C107.898 15.4247 108.024 15.7651 108.274 16.0059C108.532 16.2551 109.159 16.5798 110.137 16.9708C111.365 17.464 112.245 18.0219 112.753 18.6296C113.263 19.2424 113.522 20.0021 113.522 20.888C113.522 22.116 113.041 23.1201 112.092 23.8732C111.148 24.6211 109.854 25 108.248 25C107.728 25 107.129 24.9309 106.469 24.7952C105.809 24.6595 105.248 24.4871 104.803 24.2827L104.756 24.2606L104.756 21.2473L104.886 21.3405C105.423 21.7247 106.017 22.0244 106.645 22.2289C107.278 22.4367 107.856 22.5421 108.363 22.5421C109.729 22.5421 110.393 22.1124 110.393 21.2294C110.393 20.9193 110.327 20.668 110.198 20.4844C110.065 20.2968 109.83 20.1041 109.499 19.9125C109.16 19.7169 108.626 19.4688 107.91 19.1755C107.059 18.8112 106.417 18.4531 106 18.1113C105.581 17.7666 105.266 17.356 105.062 16.8896C104.859 16.4247 104.756 15.8766 104.756 15.2596C104.756 14.0726 105.233 13.0917 106.174 12.3438ZM116.736 13.1107C117.968 11.8582 119.696 11.2232 121.872 11.2232C123.921 11.2232 125.547 11.8306 126.703 13.029C127.858 14.2268 128.444 15.8943 128.444 17.9844C128.444 20.1003 127.82 21.8173 126.588 23.0858C125.356 24.3555 123.663 24.9995 121.554 24.9995C119.53 24.9995 117.894 24.3884 116.691 23.1821C115.489 21.9763 114.88 20.321 114.88 18.2632C114.88 16.0967 115.504 14.3633 116.736 13.1107ZM84.9426 11.5398L84.9426 13.8159L84.9756 13.8159C85.2656 13.0773 85.6448 12.4849 86.1697 12.053C86.7676 11.5615 87.4656 11.3118 88.2454 11.3118C88.7629 11.3118 89.1719 11.3735 89.4609 11.4958L89.5112 11.5173L89.5112 14.6342L89.3806 14.54C89.2371 14.4368 88.9934 14.3387 88.657 14.2485C88.3171 14.1577 88.0032 14.1117 87.7236 14.1117C86.8987 14.1117 86.2231 14.4669 85.7163 15.1678C85.2026 15.8772 84.9426 16.8163 84.9426 17.9595L84.9426 24.6826L81.8386 24.6826L81.8386 11.5398L84.9426 11.5398ZM63.9199 11.54L67.0237 11.54L67.0237 24.6826L63.9199 24.6826L63.9199 11.54ZM96.5645 22.4407C95.4243 22.4407 94.5249 22.064 93.8914 21.3221C93.2537 20.5764 92.9312 19.5135 92.9312 18.1624C92.9312 16.7688 93.2542 15.678 93.8921 14.9191C94.5256 14.1653 95.416 13.7827 96.5393 13.7827C97.6284 13.7827 98.4956 14.1481 99.1172 14.8694C99.7415 15.5944 100.058 16.6764 100.058 18.0863C100.058 19.5135 99.7603 20.6098 99.1726 21.3431C98.5891 22.071 97.7122 22.4407 96.5645 22.4407ZM121.732 22.4407C120.592 22.4407 119.692 22.064 119.059 21.3221C118.421 20.5764 118.098 19.5132 118.098 18.1624C118.098 16.7688 118.421 15.678 119.059 14.9191C119.693 14.1653 120.584 13.7827 121.707 13.7827C122.796 13.7827 123.663 14.1481 124.285 14.8694C124.909 15.5944 125.226 16.6764 125.226 18.0863C125.226 19.5135 124.928 20.6098 124.34 21.3431C123.757 22.071 122.879 22.4407 121.732 22.4407ZM15 31L0 31L0 16L15 16L15 31ZM16 31L31 31L31 16L16 16L16 31Z" clip-rule="evenodd" fill="#FFFFFF" fill-opacity="1.000000" fill-rule="evenodd"/>
</svg>
