<svg width="417.649414" height="658.861084" viewBox="0 0 417.649 658.861" fill="none" xmlns="http://www.w3.org/2000/svg" xmlns:xlink="http://www.w3.org/1999/xlink">
	<desc>
			Created with Pixso.
	</desc>
	<defs>
		<filter id="filter_0_4914_dd" x="0.000000" y="0.000000" width="417.649414" height="658.861084" filterUnits="userSpaceOnUse" color-interpolation-filters="sRGB">
			<feFlood flood-opacity="0" result="BackgroundImageFix"/>
			<feColorMatrix in="SourceAlpha" type="matrix" values="0 0 0 0 0 0 0 0 0 0 0 0 0 0 0 0 0 0 127 0" result="hardAlpha"/>
			<feOffset dx="25" dy="25"/>
			<feGaussianBlur stdDeviation="26.6667"/>
			<feComposite in2="hardAlpha" operator="out" k2="-1" k3="1"/>
			<feColorMatrix type="matrix" values="0 0 0 0 0.21176 0 0 0 0 0.32549 0 0 0 0 0.41961 0 0 0 0.3 0"/>
			<feBlend mode="normal" in2="BackgroundImageFix" result="effect_dropShadow_1"/>
			<feBlend mode="normal" in="SourceGraphic" in2="effect_dropShadow_1" result="shape"/>
		</filter>
		<clipPath id="clip0_4922">
			<rect id="Screen" width="233.000000" height="465.000000" transform="translate(67.506348 66.875000)" fill="white" fill-opacity="0"/>
		</clipPath>
		<filter id="filter_0_4928_dd" x="69.432129" y="216.430542" width="248.000000" height="117.000000" filterUnits="userSpaceOnUse" color-interpolation-filters="sRGB">
			<feFlood flood-opacity="0" result="BackgroundImageFix"/>
			<feColorMatrix in="SourceAlpha" type="matrix" values="0 0 0 0 0 0 0 0 0 0 0 0 0 0 0 0 0 0 127 0" result="hardAlpha"/>
			<feMorphology radius="-10" in="" result="BackgroundImageFix"/>
			<feOffset dx="10" dy="10"/>
			<feGaussianBlur stdDeviation="8.33333"/>
			<feComposite in2="hardAlpha" operator="out" k2="-1" k3="1"/>
			<feColorMatrix type="matrix" values="0 0 0 0 0.21176 0 0 0 0 0.32549 0 0 0 0 0.41961 0 0 0 0.25 0"/>
			<feBlend mode="normal" in2="BackgroundImageFix" result="effect_dropShadow_1"/>
			<feBlend mode="normal" in="SourceGraphic" in2="effect_dropShadow_1" result="shape"/>
		</filter>
		<clipPath id="clip0_4929">
			<rect id="Group 28" width="187.000000" height="11.000000" transform="translate(90.432129 237.430542)" fill="white" fill-opacity="0"/>
		</clipPath>
		<clipPath id="clip0_4927">
			<rect id="Group 29" width="218.000000" height="87.000000" transform="translate(74.432129 221.430542)" fill="white" fill-opacity="0"/>
		</clipPath>
		<linearGradient id="paint_linear_0_4916_0" x1="62.446777" y1="54.430542" x2="62.446777" y2="66.754486" gradientUnits="userSpaceOnUse">
			<stop stop-color="#454545"/>
			<stop offset="0.226279" stop-color="#999999"/>
			<stop offset="1.000000" stop-color="#FFFFFF"/>
		</linearGradient>
		<linearGradient id="paint_linear_0_4917_0" x1="312.535522" y1="140.178406" x2="303.074585" y2="140.178406" gradientUnits="userSpaceOnUse">
			<stop stop-color="#FFFFFF" stop-opacity="0.000000"/>
			<stop offset="0.222178" stop-color="#BABABA"/>
			<stop offset="0.546780" stop-color="#FFFFFF" stop-opacity="0.000000"/>
			<stop offset="1.000000" stop-color="#FFFFFF" stop-opacity="0.000000"/>
		</linearGradient>
		<linearGradient id="paint_linear_0_4918_0" x1="55.000107" y1="139.916290" x2="64.476181" y2="139.916290" gradientUnits="userSpaceOnUse">
			<stop stop-color="#FFFFFF" stop-opacity="0.000000"/>
			<stop offset="0.222178" stop-color="#BABABA"/>
			<stop offset="0.546780" stop-color="#FFFFFF" stop-opacity="0.000000"/>
			<stop offset="1.000000" stop-color="#FFFFFF" stop-opacity="0.000000"/>
		</linearGradient>
		<linearGradient id="paint_linear_0_4925_0" x1="68.339081" y1="66.875000" x2="68.339081" y2="528.254883" gradientUnits="userSpaceOnUse">
			<stop stop-color="#9CB6CD"/>
			<stop offset="0.420564" stop-color="#9AB3CA"/>
			<stop offset="0.716592" stop-color="#557496"/>
			<stop offset="1.000000" stop-color="#475178"/>
		</linearGradient>
	</defs>
	<g filter="url(#filter_0_4914_dd)">
		<path id="body" d="M88.2083 55L279.441 55C297.782 55 312.649 69.2354 312.649 86.7955L312.649 522.066C312.649 539.626 297.782 553.861 279.441 553.861L88.2083 553.861C69.8677 553.861 55 539.626 55 522.066L55 86.7955C55 69.2354 69.8677 55 88.2083 55Z" fill="#213648" fill-opacity="1.000000" fill-rule="evenodd"/>
	</g>
	<path id="body" d="M279.441 55C297.782 55 312.649 69.2354 312.649 86.7955L312.649 522.066C312.649 539.626 297.782 553.861 279.441 553.861L88.2083 553.861C69.8677 553.861 55 539.626 55 522.066L55 86.7955C55 69.2354 69.8677 55 88.2083 55L279.441 55Z" stroke="#979797" stroke-opacity="1.000000" stroke-width="0.000000"/>
	<g opacity="0.595562">
		<path id="reflect-frame-top" d="M280.181 54.4305L87.3547 54.4305C78.3521 54.9795 70.0496 59.0875 62.4468 66.7545C67.3362 62.4865 76.0569 56.7751 87.5867 56.7751C87.5867 56.7751 272.262 56.7751 279.949 56.7751C291.479 56.7751 300.199 62.4865 305.089 66.7545C297.486 59.0875 289.183 54.9795 280.181 54.4305Z" fill="url(#paint_linear_0_4916_0)" fill-opacity="0.650000" fill-rule="evenodd"/>
		<path id="reflect-frame-top" d="M87.3547 54.4305C78.3521 54.9795 70.0496 59.0875 62.4468 66.7545C67.3362 62.4865 76.0569 56.7751 87.5867 56.7751C87.5867 56.7751 272.262 56.7751 279.949 56.7751C291.479 56.7751 300.199 62.4865 305.089 66.7545C297.486 59.0875 289.183 54.9795 280.181 54.4305L87.3547 54.4305Z" stroke="#979797" stroke-opacity="1.000000" stroke-width="0.000000"/>
	</g>
	<g opacity="0.750000">
		<path id="reflect-frame-right" d="M307.432 517.101L307.432 89.4124C307.432 77.937 303.214 73.6949 300.698 70.9711C298.182 68.2471 298.075 66.8578 301.69 68.9144C305.305 70.9711 312.536 76.9611 312.536 89.4124L312.536 517.101C312.536 529.553 305.305 535.543 301.69 537.599C298.075 539.656 298.182 538.267 300.698 535.543C303.214 532.819 307.432 528.577 307.432 517.101Z" fill="url(#paint_linear_0_4917_0)" fill-opacity="1.000000" fill-rule="evenodd"/>
		<path id="reflect-frame-right" d="M307.432 89.4124C307.432 77.937 303.214 73.6949 300.698 70.9711C298.182 68.2471 298.075 66.8578 301.69 68.9144C305.305 70.9711 312.536 76.9611 312.536 89.4124L312.536 517.101C312.536 529.553 305.305 535.543 301.69 537.599C298.075 539.656 298.182 538.267 300.698 535.543C303.214 532.819 307.432 528.577 307.432 517.101L307.432 89.4124Z" stroke="#979797" stroke-opacity="1.000000" stroke-width="0.000000"/>
	</g>
	<g opacity="0.750000">
		<path id="reflect-frame-left" d="M60.104 517.101L60.104 89.4124C60.104 77.937 64.3215 73.6949 66.8374 70.9711C69.3533 68.2471 69.4604 66.8578 65.8455 68.9144C62.2305 70.9711 55 76.9611 55 89.4124L55 517.101C55 529.553 62.2305 535.543 65.8455 537.599C69.4604 539.656 69.3533 538.267 66.8374 535.543C64.3215 532.819 60.104 528.577 60.104 517.101Z" fill="url(#paint_linear_0_4918_0)" fill-opacity="1.000000" fill-rule="evenodd"/>
		<path id="reflect-frame-left" d="M60.104 89.4124C60.104 77.937 64.3215 73.6949 66.8374 70.9711C69.3533 68.2471 69.4604 66.8578 65.8455 68.9144C62.2305 70.9711 55 76.9611 55 89.4124L55 517.101C55 529.553 62.2305 535.543 65.8455 537.599C69.4604 539.656 69.3533 538.267 66.8374 535.543C64.3215 532.819 60.104 528.577 60.104 517.101L60.104 89.4124Z" stroke="#979797" stroke-opacity="1.000000" stroke-width="0.000000"/>
	</g>
	<path id="vol+" d="M52.4321 157.987C52.4321 156.882 53.3276 155.987 54.4321 155.987L55.3967 155.987C56.5012 155.987 57.3967 156.882 57.3967 157.987L57.3967 218.338C57.3967 219.442 56.5012 220.338 55.3967 220.338L54.4321 220.338C53.3276 220.338 52.4321 219.442 52.4321 218.338L52.4321 157.987Z" fill="#2E423C" fill-opacity="1.000000" fill-rule="evenodd"/>
	<path id="vol+" d="M55.3967 155.987C56.5012 155.987 57.3967 156.882 57.3967 157.987L57.3967 218.338C57.3967 219.442 56.5012 220.338 55.3967 220.338L54.4321 220.338C53.3276 220.338 52.4321 219.442 52.4321 218.338L52.4321 157.987C52.4321 156.882 53.3276 155.987 54.4321 155.987L55.3967 155.987Z" stroke="#979797" stroke-opacity="1.000000" stroke-width="0.000000"/>
	<path id="power" d="M309.968 210.474C309.968 209.369 310.863 208.474 311.968 208.474L312.932 208.474C314.037 208.474 314.932 209.369 314.932 210.474L314.932 253.424C314.932 254.528 314.037 255.424 312.932 255.424L311.968 255.424C310.863 255.424 309.968 254.528 309.968 253.424L309.968 210.474Z" fill="#2E423C" fill-opacity="1.000000" fill-rule="evenodd"/>
	<path id="power" d="M312.932 208.474C314.037 208.474 314.932 209.369 314.932 210.474L314.932 253.424C314.932 254.528 314.037 255.424 312.932 255.424L311.968 255.424C310.863 255.424 309.968 254.528 309.968 253.424L309.968 210.474C309.968 209.369 310.863 208.474 311.968 208.474L312.932 208.474Z" stroke="#979797" stroke-opacity="1.000000" stroke-width="0.000000"/>
	<rect id="Screen" width="233.000000" height="465.000000" transform="translate(67.506348 66.875000)" fill="#FFFFFF" fill-opacity="0"/>
	<g clip-path="url(#clip0_4922)">
		<path id="Screen Mask" d="M161.108 66.875L86.7019 66.875C75.5974 66.875 67.5063 74.4384 67.5063 84.3164L67.5063 506.706C67.5063 519.586 80.0085 530.998 94.1455 530.998L273.479 530.998C287.096 530.998 300.118 519.497 300.118 506.706L300.118 85.4581C300.118 73.6185 291.328 66.9454 280.922 66.875L205.336 66.875C205.05 66.922 199.858 69.0568 197.663 74.4382C195.469 79.8198 191.053 84.1099 186.219 84.1099L180.604 84.1099C178.306 84.1099 172.256 81.8801 169.192 74.4382C166.129 66.9965 161.395 66.922 161.108 66.875Z" fill="#FFFFFF" fill-opacity="1.000000" fill-rule="evenodd"/>
		<path id="Screen Mask" d="M86.7019 66.875C75.5974 66.875 67.5063 74.4384 67.5063 84.3164L67.5063 506.706C67.5063 519.586 80.0085 530.998 94.1455 530.998L273.479 530.998C287.096 530.998 300.118 519.497 300.118 506.706L300.118 85.4581C300.118 73.6185 291.328 66.9454 280.922 66.875L205.336 66.875C205.05 66.922 199.858 69.0568 197.663 74.4382C195.469 79.8198 191.053 84.1099 186.219 84.1099L180.604 84.1099C178.306 84.1099 172.256 81.8801 169.192 74.4382C166.129 66.9965 161.395 66.922 161.108 66.875L86.7019 66.875Z" stroke="#979797" stroke-opacity="0" stroke-width="0.000000"/>
		<mask id="mask0_4923" mask-type="alpha" maskUnits="userSpaceOnUse" x="67.506348" y="66.875000" width="232.611389" height="464.123016">
			<path id="Screen Mask" d="M161.108 66.875L86.7019 66.875C75.5974 66.875 67.5063 74.4384 67.5063 84.3164L67.5063 506.706C67.5063 519.586 80.0085 530.998 94.1455 530.998L273.479 530.998C287.096 530.998 300.118 519.497 300.118 506.706L300.118 85.4581C300.118 73.6185 291.328 66.9454 280.922 66.875L205.336 66.875C205.05 66.922 199.858 69.0568 197.663 74.4382C195.469 79.8198 191.053 84.1099 186.219 84.1099L180.604 84.1099C178.306 84.1099 172.256 81.8801 169.192 74.4382C166.129 66.9965 161.395 66.922 161.108 66.875Z" fill="#FFFFFF" fill-opacity="1.000000" fill-rule="evenodd"/>
			<path id="Screen Mask" d="M86.7019 66.875C75.5974 66.875 67.5063 74.4384 67.5063 84.3164L67.5063 506.706C67.5063 519.586 80.0085 530.998 94.1455 530.998L273.479 530.998C287.096 530.998 300.118 519.497 300.118 506.706L300.118 85.4581C300.118 73.6185 291.328 66.9454 280.922 66.875L205.336 66.875C205.05 66.922 199.858 69.0568 197.663 74.4382C195.469 79.8198 191.053 84.1099 186.219 84.1099L180.604 84.1099C178.306 84.1099 172.256 81.8801 169.192 74.4382C166.129 66.9965 161.395 66.922 161.108 66.875L86.7019 66.875Z" stroke="#979797" stroke-opacity="0" stroke-width="0.000000"/>
		</mask>
		<g mask="url(#mask0_4923)">
			<rect id="Rectangle" x="67.432129" y="66.875000" width="233.000000" height="465.000000" fill="url(#paint_linear_0_4925_0)" fill-opacity="1.000000"/>
			<rect id="Rectangle" x="67.432129" y="66.875000" width="233.000000" height="465.000000" stroke="#979797" stroke-opacity="0" stroke-width="0.000000"/>
		</g>
		<g mask="url(#mask0_4923)">
			<path id="12:49" d="M146.936 195.031L146.936 177.703L142.808 177.703L142.808 175.063C144.131 175.063 145.197 174.94 146.008 174.695C146.829 174.439 147.443 174.076 147.848 173.607C148.253 173.127 148.493 172.556 148.568 171.895L151.672 171.895L151.672 195.031L146.936 195.031ZM156.928 195.031L156.928 192.727L156.928 191.543C156.928 190.369 157.146 189.356 157.584 188.503C158.021 187.639 158.597 186.892 159.312 186.263C160.037 185.623 160.826 185.063 161.68 184.583C162.544 184.103 163.408 183.649 164.272 183.223C165.136 182.796 165.925 182.369 166.64 181.943C167.365 181.505 167.946 181.02 168.384 180.487C168.821 179.953 169.04 179.324 169.04 178.599C169.04 177.671 168.714 176.913 168.064 176.327C167.424 175.74 166.544 175.447 165.424 175.447C164.261 175.447 163.274 175.783 162.464 176.455C161.653 177.127 161.152 178.14 160.96 179.495L156.496 179.495C156.517 178.023 156.858 176.689 157.52 175.495C158.192 174.289 159.194 173.335 160.528 172.631C161.861 171.927 163.536 171.575 165.552 171.575C167.28 171.575 168.768 171.868 170.016 172.455C171.274 173.041 172.245 173.857 172.928 174.903C173.61 175.948 173.952 177.169 173.952 178.567C173.952 179.729 173.738 180.732 173.312 181.575C172.885 182.417 172.32 183.137 171.616 183.735C170.912 184.332 170.138 184.855 169.296 185.303C168.453 185.751 167.61 186.167 166.768 186.551C165.936 186.935 165.168 187.329 164.464 187.735C163.76 188.129 163.194 188.577 162.768 189.079C162.341 189.58 162.128 190.183 162.128 190.887L162.128 191.095L173.92 191.095L173.92 195.031L156.928 195.031ZM182.136 178.887L182.136 183.895L177.016 183.895L177.016 178.887L182.136 178.887ZM182.136 189.943L182.136 194.935L177.016 194.935L177.016 189.943L182.136 189.943ZM195.883 171.895L200.475 171.895L200.475 185.991L204.043 185.991L204.043 189.911L200.475 189.911L200.475 195.031L195.979 195.031L195.995 189.911L185.339 189.911L185.339 186.071L195.883 171.895ZM189.659 185.991L195.995 185.991L195.995 177.511L189.659 185.991ZM214.867 195.383C213.427 195.383 212.083 195.105 210.835 194.551C209.587 193.996 208.569 193.217 207.779 192.215C206.99 191.201 206.547 190.017 206.451 188.663L210.899 188.663C211.091 189.559 211.518 190.289 212.179 190.855C212.841 191.409 213.673 191.687 214.675 191.687C215.785 191.687 216.755 191.425 217.587 190.903C218.43 190.38 219.059 189.548 219.475 188.407C219.902 187.265 220.051 185.772 219.923 183.927C219.625 184.492 219.209 184.988 218.675 185.415C218.153 185.831 217.539 186.156 216.835 186.391C216.131 186.615 215.347 186.727 214.483 186.727C212.915 186.727 211.523 186.433 210.307 185.847C209.102 185.249 208.153 184.407 207.459 183.319C206.777 182.22 206.435 180.919 206.435 179.415C206.435 177.9 206.798 176.551 207.523 175.367C208.249 174.183 209.262 173.255 210.563 172.583C211.865 171.911 213.39 171.575 215.139 171.575C217.102 171.575 218.793 172.044 220.211 172.983C221.641 173.911 222.734 175.233 223.491 176.951C224.259 178.657 224.643 180.668 224.643 182.983C224.643 185.745 224.249 188.049 223.459 189.895C222.681 191.729 221.561 193.105 220.099 194.023C218.638 194.929 216.894 195.383 214.867 195.383ZM215.283 183.015C215.934 183.015 216.563 182.871 217.171 182.583C217.79 182.284 218.297 181.911 218.691 181.463C219.086 181.015 219.283 180.551 219.283 180.071C219.294 179.036 219.129 178.151 218.787 177.415C218.457 176.668 217.987 176.097 217.379 175.703C216.782 175.308 216.083 175.111 215.283 175.111C214.547 175.111 213.891 175.281 213.315 175.623C212.739 175.964 212.286 176.444 211.955 177.063C211.625 177.681 211.459 178.396 211.459 179.207C211.459 180.412 211.811 181.351 212.515 182.023C213.219 182.684 214.142 183.015 215.283 183.015Z" fill="#FFFFFF" fill-opacity="1.000000" fill-rule="evenodd"/>
		</g>
	</g>
	<rect id="Screen" width="233.000000" height="465.000000" transform="translate(67.506348 66.875000)" stroke="#979797" stroke-opacity="1.000000" stroke-width="1.000000"/>
	<rect id="Group 29" width="218.000000" height="87.000000" transform="translate(74.432129 221.430542)" fill="#FFFFFF" fill-opacity="0"/>
	<g clip-path="url(#clip0_4927)">
		<g filter="url(#filter_0_4928_dd)">
			<rect id="Rectangle" x="74.432129" y="221.430542" rx="5.000000" width="218.000000" height="87.000000" fill="#FBFCFE" fill-opacity="1.000000"/>
		</g>
		<rect id="Rectangle" x="74.432129" y="221.430542" rx="5.000000" width="218.000000" height="87.000000" stroke="#979797" stroke-opacity="0" stroke-width="0.000000"/>
		<rect id="Group 28" width="187.000000" height="11.000000" transform="translate(90.432129 237.430542)" fill="#FFFFFF" fill-opacity="0"/>
		<g clip-path="url(#clip0_4929)">
			<path id="PayAPI" d="M91.2421 247.056L91.2421 239.826L93.9021 239.826C94.4288 239.826 94.9005 239.917 95.3171 240.101C95.7338 240.281 96.0621 240.547 96.3021 240.901C96.5455 241.254 96.6671 241.686 96.6671 242.196C96.6671 242.676 96.5605 243.086 96.3471 243.426C96.1338 243.766 95.8338 244.026 95.4471 244.206C95.0638 244.386 94.6121 244.476 94.0921 244.476L92.7121 244.476L92.7121 247.056L91.2421 247.056ZM92.6971 243.346L94.0521 243.346C94.4188 243.346 94.7188 243.229 94.9521 242.996C95.1855 242.759 95.3021 242.467 95.3021 242.121C95.3021 241.761 95.1788 241.476 94.9321 241.266C94.6855 241.052 94.3855 240.946 94.0321 240.946L92.6971 240.946L92.6971 243.346ZM98.9438 247.156C98.6138 247.156 98.3172 247.094 98.0538 246.971C97.7905 246.847 97.5822 246.669 97.4288 246.436C97.2755 246.199 97.1988 245.912 97.1988 245.576C97.1988 245.009 97.4105 244.579 97.8338 244.286C98.2572 243.989 98.9255 243.836 99.8389 243.826L100.484 243.816L100.484 243.506C100.484 243.269 100.414 243.087 100.274 242.961C100.137 242.831 99.9239 242.767 99.6339 242.771C99.4205 242.774 99.2172 242.824 99.0238 242.921C98.8338 243.017 98.7038 243.186 98.6339 243.426L97.4188 243.426C97.4389 243.052 97.5472 242.746 97.7439 242.506C97.9405 242.262 98.2072 242.082 98.5438 241.966C98.8839 241.846 99.2688 241.786 99.6988 241.786C100.229 241.786 100.654 241.852 100.974 241.986C101.294 242.116 101.526 242.304 101.669 242.551C101.812 242.794 101.884 243.084 101.884 243.421L101.884 247.056L100.664 247.056L100.544 246.166C100.367 246.539 100.146 246.797 99.8788 246.941C99.6155 247.084 99.3038 247.156 98.9438 247.156ZM99.4338 246.196C99.5672 246.196 99.6955 246.172 99.8188 246.126C99.9455 246.076 100.057 246.011 100.154 245.931C100.254 245.847 100.334 245.754 100.394 245.651C100.454 245.547 100.484 245.441 100.484 245.331L100.484 244.566L99.9588 244.576C99.7155 244.579 99.4888 244.609 99.2788 244.666C99.0688 244.719 98.8988 244.807 98.7688 244.931C98.6422 245.054 98.5788 245.221 98.5788 245.431C98.5788 245.671 98.6622 245.859 98.8288 245.996C98.9955 246.129 99.1972 246.196 99.4338 246.196ZM103.796 248.706C103.442 248.706 103.192 248.676 103.046 248.616C102.902 248.559 102.831 248.531 102.831 248.531L102.831 247.601L103.341 247.621C103.564 247.634 103.744 247.622 103.881 247.586C104.017 247.552 104.121 247.507 104.191 247.451C104.264 247.394 104.316 247.334 104.346 247.271C104.376 247.211 104.397 247.162 104.411 247.126L104.506 246.841L102.496 241.886L103.941 241.886L105.181 245.256L106.436 241.886L107.861 241.886L105.766 247.086C105.586 247.526 105.396 247.862 105.196 248.096C104.996 248.329 104.779 248.489 104.546 248.576C104.316 248.662 104.066 248.706 103.796 248.706ZM107.66 247.056L110.25 239.826L111.79 239.826L114.375 247.056L112.92 247.056L112.33 245.381L109.73 245.381L109.125 247.056L107.66 247.056ZM110.055 244.106L111.98 244.106L111.025 241.236L110.055 244.106ZM115.461 247.056L115.461 239.826L118.121 239.826C118.648 239.826 119.119 239.917 119.536 240.101C119.953 240.281 120.281 240.547 120.521 240.901C120.764 241.254 120.886 241.686 120.886 242.196C120.886 242.676 120.779 243.086 120.566 243.426C120.353 243.766 120.053 244.026 119.666 244.206C119.283 244.386 118.831 244.476 118.311 244.476L116.931 244.476L116.931 247.056L115.461 247.056ZM116.916 243.346L118.271 243.346C118.638 243.346 118.938 243.229 119.171 242.996C119.404 242.759 119.521 242.467 119.521 242.121C119.521 241.761 119.398 241.476 119.151 241.266C118.904 241.052 118.604 240.946 118.251 240.946L116.916 240.946L116.916 243.346ZM121.984 239.826L123.439 239.826L123.439 247.056L121.984 247.056L121.984 239.826Z" fill="#BA4270" fill-opacity="1.000000" fill-rule="evenodd"/>
			<g opacity="0.500000">
				<path id="Just Now" d="M238.041 245.351C238.041 245.734 237.998 246.061 237.911 246.331C237.824 246.601 237.669 246.806 237.446 246.946C237.226 247.086 236.913 247.156 236.506 247.156C236.249 247.156 236.008 247.126 235.781 247.066C235.558 247.006 235.409 246.961 235.336 246.931L235.401 246.046C235.504 246.082 235.623 246.129 235.756 246.186C235.893 246.239 236.061 246.266 236.261 246.266C236.588 246.266 236.811 246.176 236.931 245.996C237.054 245.816 237.116 245.512 237.116 245.086L237.116 239.826L238.041 239.826L238.041 245.351ZM241.473 247.156C241.203 247.152 240.948 247.114 240.708 247.041C240.471 246.964 240.261 246.852 240.078 246.706C239.894 246.559 239.749 246.377 239.643 246.161C239.539 245.941 239.488 245.686 239.488 245.396L239.488 241.886L240.413 241.886L240.413 245.301C240.413 245.637 240.516 245.911 240.723 246.121C240.933 246.331 241.248 246.436 241.668 246.436C242.048 246.436 242.353 246.337 242.583 246.141C242.816 245.941 242.933 245.644 242.933 245.251L242.933 241.886L243.853 241.886L243.853 247.056L243.118 247.056L243.023 246.066C242.959 246.326 242.851 246.536 242.698 246.696C242.548 246.856 242.366 246.974 242.153 247.051C241.943 247.124 241.716 247.159 241.473 247.156ZM247.13 247.156C246.77 247.156 246.435 247.101 246.125 246.991C245.819 246.877 245.564 246.702 245.36 246.466C245.157 246.226 245.029 245.921 244.975 245.551L245.815 245.551C245.862 245.754 245.945 245.924 246.065 246.061C246.189 246.194 246.342 246.296 246.525 246.366C246.709 246.432 246.909 246.466 247.125 246.466C247.472 246.466 247.752 246.401 247.965 246.271C248.179 246.141 248.285 245.941 248.285 245.671C248.285 245.481 248.229 245.329 248.115 245.216C248.005 245.099 247.834 245.014 247.6 244.961L246.53 244.696C246.114 244.596 245.78 244.439 245.53 244.226C245.28 244.012 245.155 243.714 245.155 243.331C245.152 243.027 245.224 242.761 245.37 242.531C245.517 242.301 245.737 242.119 246.03 241.986C246.324 241.852 246.689 241.786 247.125 241.786C247.685 241.786 248.137 241.912 248.48 242.166C248.827 242.416 249.007 242.784 249.02 243.271L248.205 243.271C248.172 243.024 248.06 242.829 247.87 242.686C247.684 242.539 247.432 242.466 247.115 242.466C246.785 242.466 246.517 242.532 246.31 242.666C246.104 242.796 246 242.999 246 243.276C246 243.459 246.074 243.604 246.22 243.711C246.367 243.814 246.584 243.901 246.87 243.971L247.905 244.231C248.145 244.294 248.342 244.377 248.495 244.481C248.652 244.584 248.775 244.699 248.865 244.826C248.959 244.952 249.024 245.086 249.06 245.226C249.1 245.362 249.12 245.494 249.12 245.621C249.12 245.937 249.04 246.211 248.88 246.441C248.724 246.667 248.497 246.844 248.2 246.971C247.907 247.094 247.55 247.156 247.13 247.156ZM252.932 242.561L251.767 242.561L251.767 245.776C251.767 245.959 251.785 246.094 251.822 246.181C251.862 246.264 251.927 246.317 252.017 246.341C252.11 246.364 252.237 246.376 252.397 246.376L252.962 246.376L252.962 246.996C252.898 247.019 252.802 247.039 252.672 247.056C252.545 247.072 252.387 247.081 252.197 247.081C251.84 247.081 251.563 247.032 251.367 246.936C251.17 246.839 251.032 246.696 250.952 246.506C250.875 246.316 250.837 246.082 250.837 245.806L250.837 242.561L249.997 242.561L249.997 241.886L250.862 241.886L251.087 240.381L251.767 240.381L251.767 241.881L252.932 241.881L252.932 242.561ZM261.46 239.826L262.385 239.826L262.385 247.056L261.56 247.056L257.68 241.356L257.68 247.056L256.755 247.056L256.755 239.826L257.64 239.826L261.46 245.446L261.46 239.826ZM266.091 247.156C265.614 247.156 265.197 247.054 264.841 246.851C264.484 246.644 264.207 246.342 264.01 245.946C263.814 245.549 263.716 245.064 263.716 244.491C263.716 243.951 263.807 243.477 263.991 243.071C264.174 242.664 264.442 242.349 264.796 242.126C265.152 241.899 265.584 241.786 266.091 241.786C266.567 241.786 266.98 241.891 267.331 242.101C267.684 242.307 267.957 242.612 268.151 243.016C268.344 243.419 268.44 243.911 268.44 244.491C268.44 245.017 268.351 245.481 268.171 245.881C267.994 246.281 267.73 246.594 267.38 246.821C267.034 247.044 266.604 247.156 266.091 247.156ZM266.091 246.426C266.401 246.426 266.662 246.347 266.876 246.191C267.089 246.034 267.251 245.809 267.361 245.516C267.471 245.222 267.526 244.874 267.526 244.471C267.526 244.101 267.477 243.769 267.38 243.476C267.284 243.179 267.129 242.944 266.915 242.771C266.706 242.597 266.431 242.511 266.091 242.511C265.777 242.511 265.512 242.589 265.296 242.746C265.079 242.899 264.914 243.122 264.801 243.416C264.691 243.709 264.635 244.061 264.635 244.471C264.635 244.834 264.686 245.164 264.786 245.461C264.885 245.757 265.042 245.992 265.255 246.166C265.469 246.339 265.747 246.426 266.091 246.426ZM276.265 241.886L274.7 247.056L273.79 247.056L272.61 243.241L271.49 247.056L270.585 247.056L268.99 241.886L269.845 241.886L271.03 245.861L271.11 245.861L272.275 241.886L272.975 241.886L274.185 245.851L274.265 245.851L275.4 241.886L276.265 241.886Z" fill="#36536B" fill-opacity="1.000000" fill-rule="evenodd"/>
			</g>
		</g>
		<path id="The payment has been" d="M90.6621 256.676L90.6621 255.826L96.1321 255.826L96.1321 256.676L93.9271 256.676L93.9271 263.056L92.9971 263.056L92.9971 256.676L90.6621 256.676ZM97.1346 263.056L97.1346 255.626L98.0346 255.626L98.0346 258.646C98.1213 258.502 98.238 258.369 98.3846 258.246C98.5313 258.119 98.7096 258.017 98.9196 257.941C99.1296 257.861 99.373 257.821 99.6496 257.821C99.9863 257.821 100.291 257.884 100.565 258.011C100.838 258.134 101.055 258.311 101.215 258.541C101.375 258.771 101.455 259.044 101.455 259.361L101.455 263.056L100.53 263.056L100.53 259.546C100.53 259.236 100.423 258.997 100.21 258.831C99.9996 258.661 99.7246 258.576 99.3846 258.576C99.1546 258.576 98.938 258.614 98.7346 258.691C98.5313 258.764 98.3663 258.877 98.2396 259.031C98.1163 259.181 98.0546 259.372 98.0546 259.606L98.0546 263.056L97.1346 263.056ZM103.556 260.686C103.556 261.012 103.61 261.309 103.716 261.576C103.826 261.839 103.991 262.049 104.211 262.206C104.435 262.362 104.713 262.441 105.046 262.441C105.376 262.441 105.66 262.364 105.896 262.211C106.136 262.057 106.29 261.836 106.356 261.546L107.231 261.546C107.168 261.896 107.028 262.191 106.811 262.431C106.595 262.671 106.333 262.852 106.026 262.976C105.72 263.096 105.4 263.156 105.066 263.156C104.583 263.156 104.158 263.051 103.791 262.841C103.425 262.631 103.138 262.329 102.931 261.936C102.725 261.542 102.621 261.071 102.621 260.521C102.621 259.977 102.715 259.501 102.901 259.091C103.088 258.681 103.358 258.361 103.711 258.131C104.068 257.901 104.496 257.786 104.996 257.786C105.483 257.786 105.895 257.891 106.231 258.101C106.568 258.311 106.823 258.607 106.996 258.991C107.173 259.371 107.261 259.822 107.261 260.346L107.261 260.686L103.556 260.686ZM103.561 260.061L106.371 260.061C106.371 259.764 106.321 259.497 106.221 259.261C106.121 259.021 105.968 258.832 105.761 258.696C105.558 258.556 105.301 258.486 104.991 258.486C104.668 258.486 104.4 258.564 104.186 258.721C103.976 258.874 103.818 259.072 103.711 259.316C103.608 259.556 103.558 259.804 103.561 260.061ZM110.767 264.666L110.767 257.886L111.687 257.886L111.697 258.786C111.757 258.679 111.834 258.567 111.927 258.451C112.024 258.334 112.141 258.226 112.277 258.126C112.417 258.026 112.579 257.944 112.762 257.881C112.949 257.817 113.161 257.786 113.397 257.786C113.811 257.786 114.174 257.881 114.487 258.071C114.804 258.257 115.051 258.544 115.227 258.931C115.404 259.317 115.492 259.807 115.492 260.401C115.492 260.994 115.406 261.496 115.232 261.906C115.062 262.312 114.816 262.622 114.492 262.836C114.169 263.049 113.779 263.156 113.322 263.156C113.092 263.156 112.887 263.122 112.707 263.056C112.531 262.992 112.376 262.909 112.242 262.806C112.112 262.699 112.002 262.586 111.912 262.466C111.826 262.346 111.754 262.231 111.697 262.121L111.697 264.666L110.767 264.666ZM113.147 262.436C113.574 262.436 113.922 262.274 114.192 261.951C114.462 261.624 114.597 261.117 114.597 260.431C114.597 259.841 114.474 259.372 114.227 259.026C113.981 258.679 113.621 258.506 113.147 258.506C112.667 258.506 112.304 258.684 112.057 259.041C111.811 259.394 111.687 259.857 111.687 260.431C111.687 260.801 111.742 261.137 111.852 261.441C111.962 261.744 112.126 261.986 112.342 262.166C112.559 262.346 112.827 262.436 113.147 262.436ZM118.067 263.156C117.733 263.156 117.438 263.097 117.182 262.981C116.925 262.861 116.723 262.689 116.577 262.466C116.433 262.242 116.362 261.972 116.362 261.656C116.362 261.082 116.562 260.656 116.962 260.376C117.362 260.096 118.003 259.946 118.887 259.926L119.812 259.901L119.812 259.496C119.812 259.179 119.717 258.929 119.527 258.746C119.337 258.559 119.042 258.466 118.642 258.466C118.345 258.469 118.083 258.539 117.857 258.676C117.633 258.812 117.488 259.036 117.422 259.346L116.607 259.346C116.627 259.009 116.722 258.726 116.892 258.496C117.062 258.262 117.298 258.086 117.602 257.966C117.908 257.846 118.27 257.786 118.687 257.786C119.137 257.786 119.51 257.849 119.807 257.976C120.107 258.102 120.33 258.289 120.477 258.536C120.627 258.782 120.702 259.086 120.702 259.446L120.702 263.056L119.912 263.056L119.847 262.086C119.647 262.489 119.392 262.769 119.082 262.926C118.775 263.079 118.437 263.156 118.067 263.156ZM118.347 262.491C118.52 262.491 118.692 262.459 118.862 262.396C119.035 262.332 119.193 262.247 119.337 262.141C119.48 262.031 119.593 261.909 119.677 261.776C119.763 261.639 119.808 261.499 119.812 261.356L119.812 260.471L119.042 260.486C118.648 260.492 118.318 260.532 118.052 260.606C117.788 260.679 117.59 260.794 117.457 260.951C117.327 261.107 117.262 261.312 117.262 261.566C117.262 261.856 117.362 262.082 117.562 262.246C117.765 262.409 118.027 262.491 118.347 262.491ZM122.625 264.706C122.322 264.706 122.113 264.684 122 264.641C121.887 264.597 121.83 264.576 121.83 264.576L121.83 263.976L122.355 263.986C122.548 263.992 122.708 263.979 122.835 263.946C122.962 263.912 123.063 263.867 123.14 263.811C123.217 263.754 123.275 263.691 123.315 263.621C123.358 263.551 123.393 263.484 123.42 263.421L123.6 262.931L121.58 257.886L122.515 257.886L124.04 261.876L125.555 257.886L126.46 257.886L124.28 263.446C124.147 263.772 123.997 264.027 123.83 264.211C123.667 264.394 123.483 264.522 123.28 264.596C123.08 264.669 122.862 264.706 122.625 264.706ZM127.447 263.056L127.447 257.886L128.337 257.886L128.337 258.636C128.48 258.409 128.677 258.211 128.927 258.041C129.177 257.871 129.502 257.786 129.902 257.786C130.089 257.786 130.279 257.817 130.472 257.881C130.669 257.944 130.849 258.039 131.012 258.166C131.175 258.292 131.302 258.447 131.392 258.631C131.552 258.377 131.769 258.174 132.042 258.021C132.315 257.864 132.624 257.786 132.967 257.786C133.147 257.786 133.335 257.814 133.532 257.871C133.729 257.924 133.91 258.021 134.077 258.161C134.247 258.297 134.385 258.489 134.492 258.736C134.599 258.979 134.652 259.292 134.652 259.676L134.652 263.056L133.722 263.056L133.722 259.766C133.722 259.452 133.672 259.211 133.572 259.041C133.472 258.867 133.34 258.746 133.177 258.676C133.017 258.606 132.845 258.571 132.662 258.571C132.502 258.571 132.332 258.602 132.152 258.666C131.972 258.729 131.819 258.836 131.692 258.986C131.565 259.136 131.502 259.341 131.502 259.601L131.502 263.056L130.582 263.056L130.582 259.496C130.582 259.292 130.527 259.122 130.417 258.986C130.31 258.849 130.175 258.746 130.012 258.676C129.852 258.606 129.692 258.571 129.532 258.571C129.355 258.571 129.177 258.606 128.997 258.676C128.82 258.746 128.67 258.857 128.547 259.011C128.427 259.161 128.367 259.357 128.367 259.601L128.367 263.056L127.447 263.056ZM136.759 260.686C136.759 261.012 136.813 261.309 136.919 261.576C137.029 261.839 137.194 262.049 137.414 262.206C137.638 262.362 137.916 262.441 138.249 262.441C138.579 262.441 138.863 262.364 139.099 262.211C139.339 262.057 139.493 261.836 139.559 261.546L140.434 261.546C140.371 261.896 140.231 262.191 140.014 262.431C139.798 262.671 139.536 262.852 139.229 262.976C138.923 263.096 138.603 263.156 138.269 263.156C137.786 263.156 137.361 263.051 136.994 262.841C136.628 262.631 136.341 262.329 136.134 261.936C135.928 261.542 135.824 261.071 135.824 260.521C135.824 259.977 135.918 259.501 136.104 259.091C136.291 258.681 136.561 258.361 136.914 258.131C137.271 257.901 137.699 257.786 138.199 257.786C138.686 257.786 139.098 257.891 139.434 258.101C139.771 258.311 140.026 258.607 140.199 258.991C140.376 259.371 140.464 259.822 140.464 260.346L140.464 260.686L136.759 260.686ZM136.764 260.061L139.574 260.061C139.574 259.764 139.524 259.497 139.424 259.261C139.324 259.021 139.171 258.832 138.964 258.696C138.761 258.556 138.504 258.486 138.194 258.486C137.871 258.486 137.603 258.564 137.389 258.721C137.179 258.874 137.021 259.072 136.914 259.316C136.811 259.556 136.761 259.804 136.764 260.061ZM141.734 263.056L141.734 257.886L142.629 257.886L142.629 258.636C142.713 258.492 142.828 258.357 142.974 258.231C143.124 258.104 143.304 258.002 143.514 257.926C143.728 257.849 143.973 257.811 144.249 257.811C144.576 257.811 144.876 257.876 145.149 258.006C145.426 258.136 145.646 258.339 145.809 258.616C145.976 258.889 146.059 259.242 146.059 259.676L146.059 263.056L145.134 263.056L145.134 259.766C145.134 259.362 145.028 259.064 144.814 258.871C144.604 258.674 144.331 258.576 143.994 258.576C143.761 258.576 143.543 258.614 143.339 258.691C143.136 258.764 142.971 258.877 142.844 259.031C142.718 259.181 142.654 259.371 142.654 259.601L142.654 263.056L141.734 263.056ZM149.888 258.561L148.723 258.561L148.723 261.776C148.723 261.959 148.742 262.094 148.778 262.181C148.818 262.264 148.883 262.317 148.973 262.341C149.067 262.364 149.193 262.376 149.353 262.376L149.918 262.376L149.918 262.996C149.855 263.019 149.758 263.039 149.628 263.056C149.502 263.072 149.343 263.081 149.153 263.081C148.797 263.081 148.52 263.032 148.323 262.936C148.127 262.839 147.988 262.696 147.908 262.506C147.832 262.316 147.793 262.082 147.793 261.806L147.793 258.561L146.953 258.561L146.953 257.886L147.818 257.886L148.043 256.381L148.723 256.381L148.723 257.881L149.888 257.881L149.888 258.561ZM153.521 263.056L153.521 255.626L154.421 255.626L154.421 258.646C154.508 258.502 154.625 258.369 154.771 258.246C154.918 258.119 155.096 258.017 155.306 257.941C155.516 257.861 155.76 257.821 156.036 257.821C156.373 257.821 156.678 257.884 156.951 258.011C157.225 258.134 157.441 258.311 157.601 258.541C157.761 258.771 157.841 259.044 157.841 259.361L157.841 263.056L156.916 263.056L156.916 259.546C156.916 259.236 156.81 258.997 156.596 258.831C156.386 258.661 156.111 258.576 155.771 258.576C155.541 258.576 155.325 258.614 155.121 258.691C154.918 258.764 154.753 258.877 154.626 259.031C154.503 259.181 154.441 259.372 154.441 259.606L154.441 263.056L153.521 263.056ZM160.694 263.156C160.36 263.156 160.065 263.097 159.809 262.981C159.552 262.861 159.35 262.689 159.204 262.466C159.06 262.242 158.989 261.972 158.989 261.656C158.989 261.082 159.189 260.656 159.589 260.376C159.989 260.096 160.63 259.946 161.514 259.926L162.439 259.901L162.439 259.496C162.439 259.179 162.344 258.929 162.154 258.746C161.964 258.559 161.669 258.466 161.269 258.466C160.972 258.469 160.71 258.539 160.484 258.676C160.26 258.812 160.115 259.036 160.049 259.346L159.234 259.346C159.254 259.009 159.349 258.726 159.519 258.496C159.689 258.262 159.925 258.086 160.229 257.966C160.535 257.846 160.897 257.786 161.314 257.786C161.764 257.786 162.137 257.849 162.434 257.976C162.734 258.102 162.957 258.289 163.104 258.536C163.254 258.782 163.329 259.086 163.329 259.446L163.329 263.056L162.539 263.056L162.474 262.086C162.274 262.489 162.019 262.769 161.709 262.926C161.402 263.079 161.064 263.156 160.694 263.156ZM160.974 262.491C161.147 262.491 161.319 262.459 161.489 262.396C161.662 262.332 161.82 262.247 161.964 262.141C162.107 262.031 162.22 261.909 162.304 261.776C162.39 261.639 162.435 261.499 162.439 261.356L162.439 260.471L161.669 260.486C161.275 260.492 160.945 260.532 160.679 260.606C160.415 260.679 160.217 260.794 160.084 260.951C159.954 261.107 159.889 261.312 159.889 261.566C159.889 261.856 159.989 262.082 160.189 262.246C160.392 262.409 160.654 262.491 160.974 262.491ZM166.655 263.156C166.295 263.156 165.96 263.101 165.65 262.991C165.344 262.877 165.089 262.702 164.885 262.466C164.682 262.226 164.554 261.921 164.5 261.551L165.34 261.551C165.387 261.754 165.47 261.924 165.59 262.061C165.714 262.194 165.867 262.296 166.05 262.366C166.234 262.432 166.434 262.466 166.65 262.466C166.997 262.466 167.277 262.401 167.49 262.271C167.704 262.141 167.81 261.941 167.81 261.671C167.81 261.481 167.754 261.329 167.64 261.216C167.53 261.099 167.359 261.014 167.125 260.961L166.055 260.696C165.639 260.596 165.305 260.439 165.055 260.226C164.805 260.012 164.68 259.714 164.68 259.331C164.677 259.027 164.749 258.761 164.895 258.531C165.042 258.301 165.262 258.119 165.555 257.986C165.849 257.852 166.214 257.786 166.65 257.786C167.21 257.786 167.662 257.912 168.005 258.166C168.352 258.416 168.532 258.784 168.545 259.271L167.73 259.271C167.697 259.024 167.585 258.829 167.395 258.686C167.209 258.539 166.957 258.466 166.64 258.466C166.31 258.466 166.042 258.532 165.835 258.666C165.629 258.796 165.525 258.999 165.525 259.276C165.525 259.459 165.599 259.604 165.745 259.711C165.892 259.814 166.109 259.901 166.395 259.971L167.43 260.231C167.67 260.294 167.867 260.377 168.02 260.481C168.177 260.584 168.3 260.699 168.39 260.826C168.484 260.952 168.549 261.086 168.585 261.226C168.625 261.362 168.645 261.494 168.645 261.621C168.645 261.937 168.565 262.211 168.405 262.441C168.249 262.667 168.022 262.844 167.725 262.971C167.432 263.094 167.075 263.156 166.655 263.156ZM174.758 263.156C174.455 263.156 174.198 263.116 173.988 263.036C173.781 262.956 173.611 262.854 173.478 262.731C173.345 262.604 173.241 262.476 173.168 262.346C173.095 262.212 173.041 262.096 173.008 261.996L172.908 263.056L172.203 263.056L172.203 255.626L173.133 255.626L173.133 258.706C173.176 258.619 173.241 258.524 173.328 258.421C173.418 258.317 173.533 258.217 173.673 258.121C173.813 258.024 173.978 257.944 174.168 257.881C174.361 257.817 174.581 257.786 174.828 257.786C175.475 257.786 175.988 258.011 176.368 258.461C176.751 258.911 176.943 259.574 176.943 260.451C176.943 260.994 176.861 261.469 176.698 261.876C176.535 262.279 176.291 262.594 175.968 262.821C175.645 263.044 175.241 263.156 174.758 263.156ZM174.593 262.446C175.013 262.446 175.355 262.284 175.618 261.961C175.881 261.634 176.013 261.116 176.013 260.406C176.013 259.802 175.89 259.336 175.643 259.006C175.4 258.672 175.043 258.506 174.573 258.506C174.23 258.506 173.953 258.581 173.743 258.731C173.536 258.877 173.383 259.092 173.283 259.376C173.186 259.659 173.136 260.002 173.133 260.406C173.133 261.129 173.245 261.651 173.468 261.971C173.695 262.287 174.07 262.446 174.593 262.446ZM178.81 260.686C178.81 261.012 178.864 261.309 178.97 261.576C179.08 261.839 179.245 262.049 179.465 262.206C179.689 262.362 179.967 262.441 180.3 262.441C180.63 262.441 180.914 262.364 181.15 262.211C181.39 262.057 181.544 261.836 181.61 261.546L182.485 261.546C182.422 261.896 182.282 262.191 182.065 262.431C181.849 262.671 181.587 262.852 181.28 262.976C180.974 263.096 180.654 263.156 180.32 263.156C179.837 263.156 179.412 263.051 179.045 262.841C178.679 262.631 178.392 262.329 178.185 261.936C177.979 261.542 177.875 261.071 177.875 260.521C177.875 259.977 177.969 259.501 178.155 259.091C178.342 258.681 178.612 258.361 178.965 258.131C179.322 257.901 179.75 257.786 180.25 257.786C180.737 257.786 181.149 257.891 181.485 258.101C181.822 258.311 182.077 258.607 182.25 258.991C182.427 259.371 182.515 259.822 182.515 260.346L182.515 260.686L178.81 260.686ZM178.815 260.061L181.625 260.061C181.625 259.764 181.575 259.497 181.475 259.261C181.375 259.021 181.222 258.832 181.015 258.696C180.812 258.556 180.555 258.486 180.245 258.486C179.922 258.486 179.654 258.564 179.44 258.721C179.23 258.874 179.072 259.072 178.965 259.316C178.862 259.556 178.812 259.804 178.815 260.061ZM184.445 260.686C184.445 261.012 184.498 261.309 184.605 261.576C184.715 261.839 184.88 262.049 185.1 262.206C185.323 262.362 185.602 262.441 185.935 262.441C186.265 262.441 186.548 262.364 186.785 262.211C187.025 262.057 187.178 261.836 187.245 261.546L188.12 261.546C188.057 261.896 187.917 262.191 187.7 262.431C187.483 262.671 187.222 262.852 186.915 262.976C186.608 263.096 186.288 263.156 185.955 263.156C185.472 263.156 185.047 263.051 184.68 262.841C184.313 262.631 184.027 262.329 183.82 261.936C183.613 261.542 183.51 261.071 183.51 260.521C183.51 259.977 183.603 259.501 183.79 259.091C183.977 258.681 184.247 258.361 184.6 258.131C184.957 257.901 185.385 257.786 185.885 257.786C186.372 257.786 186.783 257.891 187.12 258.101C187.457 258.311 187.712 258.607 187.885 258.991C188.062 259.371 188.15 259.822 188.15 260.346L188.15 260.686L184.445 260.686ZM184.45 260.061L187.26 260.061C187.26 259.764 187.21 259.497 187.11 259.261C187.01 259.021 186.857 258.832 186.65 258.696C186.447 258.556 186.19 258.486 185.88 258.486C185.557 258.486 185.288 258.564 185.075 258.721C184.865 258.874 184.707 259.072 184.6 259.316C184.497 259.556 184.447 259.804 184.45 260.061ZM189.42 263.056L189.42 257.886L190.315 257.886L190.315 258.636C190.398 258.492 190.513 258.357 190.66 258.231C190.81 258.104 190.99 258.002 191.2 257.926C191.413 257.849 191.658 257.811 191.935 257.811C192.261 257.811 192.561 257.876 192.835 258.006C193.111 258.136 193.331 258.339 193.495 258.616C193.661 258.889 193.745 259.242 193.745 259.676L193.745 263.056L192.82 263.056L192.82 259.766C192.82 259.362 192.713 259.064 192.5 258.871C192.29 258.674 192.016 258.576 191.68 258.576C191.446 258.576 191.228 258.614 191.025 258.691C190.821 258.764 190.656 258.877 190.53 259.031C190.403 259.181 190.34 259.371 190.34 259.601L190.34 263.056L189.42 263.056ZM197.496 264.666L197.496 257.886L198.416 257.886L198.426 258.786C198.486 258.679 198.563 258.567 198.656 258.451C198.753 258.334 198.869 258.226 199.006 258.126C199.146 258.026 199.308 257.944 199.491 257.881C199.678 257.817 199.889 257.786 200.126 257.786C200.539 257.786 200.903 257.881 201.216 258.071C201.533 258.257 201.779 258.544 201.956 258.931C202.133 259.317 202.221 259.807 202.221 260.401C202.221 260.994 202.134 261.496 201.961 261.906C201.791 262.312 201.544 262.622 201.221 262.836C200.898 263.049 200.508 263.156 200.051 263.156C199.821 263.156 199.616 263.122 199.436 263.056C199.259 262.992 199.104 262.909 198.971 262.806C198.841 262.699 198.731 262.586 198.641 262.466C198.554 262.346 198.483 262.231 198.426 262.121L198.426 264.666L197.496 264.666ZM199.876 262.436C200.303 262.436 200.651 262.274 200.921 261.951C201.191 261.624 201.326 261.117 201.326 260.431C201.326 259.841 201.203 259.372 200.956 259.026C200.709 258.679 200.349 258.506 199.876 258.506C199.396 258.506 199.033 258.684 198.786 259.041C198.539 259.394 198.416 259.857 198.416 260.431C198.416 260.801 198.471 261.137 198.581 261.441C198.691 261.744 198.854 261.986 199.071 262.166C199.288 262.346 199.556 262.436 199.876 262.436ZM203.433 263.056L203.433 257.886L204.313 257.886L204.313 258.881C204.4 258.634 204.522 258.431 204.678 258.271C204.835 258.107 205.013 257.986 205.213 257.906C205.417 257.826 205.627 257.786 205.843 257.786C205.92 257.786 205.995 257.791 206.068 257.801C206.142 257.811 206.198 257.827 206.238 257.851L206.238 258.746C206.188 258.722 206.123 258.707 206.043 258.701C205.967 258.691 205.902 258.686 205.848 258.686C205.642 258.672 205.448 258.686 205.268 258.726C205.088 258.762 204.93 258.827 204.793 258.921C204.657 259.014 204.548 259.137 204.468 259.291C204.392 259.441 204.353 259.624 204.353 259.841L204.353 263.056L203.433 263.056ZM209.248 263.156C208.772 263.156 208.355 263.054 207.998 262.851C207.642 262.644 207.365 262.342 207.168 261.946C206.972 261.549 206.873 261.064 206.873 260.491C206.873 259.951 206.965 259.477 207.148 259.071C207.332 258.664 207.6 258.349 207.953 258.126C208.31 257.899 208.742 257.786 209.248 257.786C209.725 257.786 210.138 257.891 210.488 258.101C210.842 258.307 211.115 258.612 211.308 259.016C211.502 259.419 211.598 259.911 211.598 260.491C211.598 261.017 211.508 261.481 211.328 261.881C211.152 262.281 210.888 262.594 210.538 262.821C210.192 263.044 209.762 263.156 209.248 263.156ZM209.248 262.426C209.558 262.426 209.82 262.347 210.033 262.191C210.247 262.034 210.408 261.809 210.518 261.516C210.628 261.222 210.683 260.874 210.683 260.471C210.683 260.101 210.635 259.769 210.538 259.476C210.442 259.179 210.287 258.944 210.073 258.771C209.863 258.597 209.588 258.511 209.248 258.511C208.935 258.511 208.67 258.589 208.453 258.746C208.237 258.899 208.072 259.122 207.958 259.416C207.848 259.709 207.793 260.061 207.793 260.471C207.793 260.834 207.843 261.164 207.943 261.461C208.043 261.757 208.2 261.992 208.413 262.166C208.627 262.339 208.905 262.426 209.248 262.426ZM214.868 257.786C215.238 257.786 215.572 257.857 215.868 258.001C216.165 258.141 216.407 258.341 216.593 258.601C216.783 258.861 216.902 259.167 216.948 259.521L216.128 259.521C216.098 259.341 216.028 259.176 215.918 259.026C215.812 258.876 215.67 258.756 215.493 258.666C215.317 258.576 215.11 258.531 214.873 258.531C214.43 258.531 214.07 258.691 213.793 259.011C213.517 259.331 213.378 259.821 213.378 260.481C213.378 261.077 213.505 261.556 213.758 261.916C214.015 262.272 214.392 262.451 214.888 262.451C215.125 262.451 215.33 262.406 215.503 262.316C215.68 262.222 215.822 262.101 215.928 261.951C216.035 261.797 216.103 261.634 216.133 261.461L216.938 261.461C216.895 261.807 216.778 262.107 216.588 262.361C216.398 262.614 216.155 262.811 215.858 262.951C215.565 263.087 215.235 263.156 214.868 263.156C214.405 263.156 213.993 263.054 213.633 262.851C213.277 262.647 212.997 262.347 212.793 261.951C212.59 261.554 212.488 261.067 212.488 260.491C212.488 259.951 212.58 259.479 212.763 259.076C212.95 258.669 213.22 258.352 213.573 258.126C213.93 257.899 214.362 257.786 214.868 257.786ZM218.859 260.686C218.859 261.012 218.912 261.309 219.019 261.576C219.129 261.839 219.294 262.049 219.514 262.206C219.737 262.362 220.016 262.441 220.349 262.441C220.679 262.441 220.962 262.364 221.199 262.211C221.439 262.057 221.592 261.836 221.659 261.546L222.534 261.546C222.471 261.896 222.331 262.191 222.114 262.431C221.897 262.671 221.636 262.852 221.329 262.976C221.022 263.096 220.702 263.156 220.369 263.156C219.886 263.156 219.461 263.051 219.094 262.841C218.727 262.631 218.441 262.329 218.234 261.936C218.027 261.542 217.924 261.071 217.924 260.521C217.924 259.977 218.017 259.501 218.204 259.091C218.391 258.681 218.661 258.361 219.014 258.131C219.371 257.901 219.799 257.786 220.299 257.786C220.786 257.786 221.197 257.891 221.534 258.101C221.871 258.311 222.126 258.607 222.299 258.991C222.476 259.371 222.564 259.822 222.564 260.346L222.564 260.686L218.859 260.686ZM218.864 260.061L221.674 260.061C221.674 259.764 221.624 259.497 221.524 259.261C221.424 259.021 221.271 258.832 221.064 258.696C220.861 258.556 220.604 258.486 220.294 258.486C219.971 258.486 219.702 258.564 219.489 258.721C219.279 258.874 219.121 259.072 219.014 259.316C218.911 259.556 218.861 259.804 218.864 260.061ZM225.63 263.156C225.27 263.156 224.935 263.101 224.625 262.991C224.318 262.877 224.063 262.702 223.86 262.466C223.656 262.226 223.528 261.921 223.475 261.551L224.315 261.551C224.361 261.754 224.445 261.924 224.565 262.061C224.688 262.194 224.841 262.296 225.025 262.366C225.208 262.432 225.408 262.466 225.625 262.466C225.971 262.466 226.251 262.401 226.465 262.271C226.678 262.141 226.785 261.941 226.785 261.671C226.785 261.481 226.728 261.329 226.615 261.216C226.505 261.099 226.333 261.014 226.1 260.961L225.03 260.696C224.613 260.596 224.28 260.439 224.03 260.226C223.78 260.012 223.655 259.714 223.655 259.331C223.651 259.027 223.723 258.761 223.87 258.531C224.016 258.301 224.236 258.119 224.53 257.986C224.823 257.852 225.188 257.786 225.625 257.786C226.185 257.786 226.636 257.912 226.98 258.166C227.326 258.416 227.506 258.784 227.52 259.271L226.705 259.271C226.671 259.024 226.56 258.829 226.37 258.686C226.183 258.539 225.931 258.466 225.615 258.466C225.285 258.466 225.016 258.532 224.81 258.666C224.603 258.796 224.5 258.999 224.5 259.276C224.5 259.459 224.573 259.604 224.72 259.711C224.866 259.814 225.083 259.901 225.37 259.971L226.405 260.231C226.645 260.294 226.841 260.377 226.995 260.481C227.151 260.584 227.275 260.699 227.365 260.826C227.458 260.952 227.523 261.086 227.56 261.226C227.6 261.362 227.62 261.494 227.62 261.621C227.62 261.937 227.54 262.211 227.38 262.441C227.223 262.667 226.996 262.844 226.7 262.971C226.406 263.094 226.05 263.156 225.63 263.156ZM230.659 263.156C230.299 263.156 229.964 263.101 229.654 262.991C229.347 262.877 229.092 262.702 228.889 262.466C228.686 262.226 228.557 261.921 228.504 261.551L229.344 261.551C229.391 261.754 229.474 261.924 229.594 262.061C229.717 262.194 229.871 262.296 230.054 262.366C230.237 262.432 230.437 262.466 230.654 262.466C231.001 262.466 231.281 262.401 231.494 262.271C231.707 262.141 231.814 261.941 231.814 261.671C231.814 261.481 231.757 261.329 231.644 261.216C231.534 261.099 231.362 261.014 231.129 260.961L230.059 260.696C229.642 260.596 229.309 260.439 229.059 260.226C228.809 260.012 228.684 259.714 228.684 259.331C228.681 259.027 228.752 258.761 228.899 258.531C229.046 258.301 229.266 258.119 229.559 257.986C229.852 257.852 230.217 257.786 230.654 257.786C231.214 257.786 231.666 257.912 232.009 258.166C232.356 258.416 232.536 258.784 232.549 259.271L231.734 259.271C231.701 259.024 231.589 258.829 231.399 258.686C231.212 258.539 230.961 258.466 230.644 258.466C230.314 258.466 230.046 258.532 229.839 258.666C229.632 258.796 229.529 258.999 229.529 259.276C229.529 259.459 229.602 259.604 229.749 259.711C229.896 259.814 230.112 259.901 230.399 259.971L231.434 260.231C231.674 260.294 231.871 260.377 232.024 260.481C232.181 260.584 232.304 260.699 232.394 260.826C232.487 260.952 232.552 261.086 232.589 261.226C232.629 261.362 232.649 261.494 232.649 261.621C232.649 261.937 232.569 262.211 232.409 262.441C232.252 262.667 232.026 262.844 231.729 262.971C231.436 263.094 231.079 263.156 230.659 263.156ZM234.601 260.686C234.601 261.012 234.655 261.309 234.761 261.576C234.871 261.839 235.036 262.049 235.256 262.206C235.48 262.362 235.758 262.441 236.091 262.441C236.421 262.441 236.705 262.364 236.941 262.211C237.181 262.057 237.335 261.836 237.401 261.546L238.276 261.546C238.213 261.896 238.073 262.191 237.856 262.431C237.64 262.671 237.378 262.852 237.071 262.976C236.765 263.096 236.445 263.156 236.111 263.156C235.628 263.156 235.203 263.051 234.836 262.841C234.47 262.631 234.183 262.329 233.976 261.936C233.77 261.542 233.666 261.071 233.666 260.521C233.666 259.977 233.76 259.501 233.946 259.091C234.133 258.681 234.403 258.361 234.756 258.131C235.113 257.901 235.541 257.786 236.041 257.786C236.528 257.786 236.94 257.891 237.276 258.101C237.613 258.311 237.868 258.607 238.041 258.991C238.218 259.371 238.306 259.822 238.306 260.346L238.306 260.686L234.601 260.686ZM234.606 260.061L237.416 260.061C237.416 259.764 237.366 259.497 237.266 259.261C237.166 259.021 237.013 258.832 236.806 258.696C236.603 258.556 236.346 258.486 236.036 258.486C235.713 258.486 235.445 258.564 235.231 258.721C235.021 258.874 234.863 259.072 234.756 259.316C234.653 259.556 234.603 259.804 234.606 260.061ZM241.441 263.156C240.771 263.156 240.239 262.926 239.846 262.466C239.453 262.006 239.256 261.334 239.256 260.451C239.256 259.914 239.334 259.446 239.491 259.046C239.651 258.646 239.888 258.336 240.201 258.116C240.514 257.896 240.904 257.786 241.371 257.786C241.618 257.786 241.836 257.817 242.026 257.881C242.219 257.944 242.386 258.024 242.526 258.121C242.666 258.217 242.779 258.317 242.866 258.421C242.956 258.524 243.023 258.619 243.066 258.706L243.066 255.626L243.996 255.626L243.996 263.056L243.291 263.056L243.191 261.996C243.158 262.096 243.104 262.212 243.031 262.346C242.958 262.476 242.854 262.604 242.721 262.731C242.588 262.854 242.416 262.956 242.206 263.036C241.999 263.116 241.744 263.156 241.441 263.156ZM241.606 262.446C242.129 262.446 242.503 262.287 242.726 261.971C242.953 261.651 243.066 261.129 243.066 260.406C243.063 260.002 243.011 259.659 242.911 259.376C242.814 259.092 242.661 258.877 242.451 258.731C242.244 258.581 241.969 258.506 241.626 258.506C241.199 258.506 240.853 258.657 240.586 258.961C240.319 259.264 240.186 259.746 240.186 260.406C240.186 261.052 240.306 261.554 240.546 261.911C240.789 262.267 241.143 262.446 241.606 262.446ZM245.308 263.056L245.308 261.876L246.408 261.876L246.408 263.056L245.308 263.056ZM249.48 256.676L249.48 255.826L254.95 255.826L254.95 256.676L252.745 256.676L252.745 263.056L251.815 263.056L251.815 256.676L249.48 256.676ZM255.953 263.056L255.953 255.626L256.853 255.626L256.853 258.646C256.94 258.502 257.056 258.369 257.203 258.246C257.35 258.119 257.528 258.017 257.738 257.941C257.948 257.861 258.191 257.821 258.468 257.821C258.805 257.821 259.11 257.884 259.383 258.011C259.656 258.134 259.873 258.311 260.033 258.541C260.193 258.771 260.273 259.044 260.273 259.361L260.273 263.056L259.348 263.056L259.348 259.546C259.348 259.236 259.241 258.997 259.028 258.831C258.818 258.661 258.543 258.576 258.203 258.576C257.973 258.576 257.756 258.614 257.553 258.691C257.35 258.764 257.185 258.877 257.058 259.031C256.935 259.181 256.873 259.372 256.873 259.606L256.873 263.056L255.953 263.056ZM262.375 260.686C262.375 261.012 262.428 261.309 262.535 261.576C262.645 261.839 262.81 262.049 263.03 262.206C263.253 262.362 263.531 262.441 263.865 262.441C264.195 262.441 264.478 262.364 264.715 262.211C264.955 262.057 265.108 261.836 265.175 261.546L266.05 261.546C265.986 261.896 265.846 262.191 265.63 262.431C265.413 262.671 265.151 262.852 264.845 262.976C264.538 263.096 264.218 263.156 263.885 263.156C263.401 263.156 262.976 263.051 262.61 262.841C262.243 262.631 261.956 262.329 261.75 261.936C261.543 261.542 261.44 261.071 261.44 260.521C261.44 259.977 261.533 259.501 261.72 259.091C261.906 258.681 262.176 258.361 262.53 258.131C262.886 257.901 263.315 257.786 263.815 257.786C264.301 257.786 264.713 257.891 265.05 258.101C265.386 258.311 265.641 258.607 265.815 258.991C265.991 259.371 266.08 259.822 266.08 260.346L266.08 260.686L262.375 260.686ZM262.38 260.061L265.19 260.061C265.19 259.764 265.14 259.497 265.04 259.261C264.94 259.021 264.786 258.832 264.58 258.696C264.376 258.556 264.12 258.486 263.81 258.486C263.486 258.486 263.218 258.564 263.005 258.721C262.795 258.874 262.636 259.072 262.53 259.316C262.426 259.556 262.376 259.804 262.38 260.061ZM93.8921 272.561L92.7271 272.561L92.7271 275.776C92.7271 275.959 92.7455 276.094 92.7821 276.181C92.8221 276.264 92.8871 276.317 92.9771 276.341C93.0705 276.364 93.1971 276.376 93.3571 276.376L93.9221 276.376L93.9221 276.996C93.8588 277.019 93.7621 277.039 93.6321 277.056C93.5055 277.072 93.3471 277.081 93.1571 277.081C92.8005 277.081 92.5238 277.032 92.3271 276.936C92.1305 276.839 91.9921 276.696 91.9121 276.506C91.8355 276.316 91.7971 276.082 91.7971 275.806L91.7971 272.561L90.9571 272.561L90.9571 271.886L91.8221 271.886L92.0471 270.381L92.7271 270.381L92.7271 271.881L93.8921 271.881L93.8921 272.561ZM97.1388 277.156C96.6622 277.156 96.2455 277.054 95.8888 276.851C95.5322 276.644 95.2555 276.342 95.0588 275.946C94.8622 275.549 94.7638 275.064 94.7638 274.491C94.7638 273.951 94.8555 273.477 95.0388 273.071C95.2222 272.664 95.4905 272.349 95.8438 272.126C96.2005 271.899 96.6322 271.786 97.1388 271.786C97.6155 271.786 98.0288 271.891 98.3788 272.101C98.7322 272.307 99.0055 272.612 99.1988 273.016C99.3922 273.419 99.4888 273.911 99.4888 274.491C99.4888 275.017 99.3988 275.481 99.2188 275.881C99.0422 276.281 98.7788 276.594 98.4288 276.821C98.0822 277.044 97.6522 277.156 97.1388 277.156ZM97.1388 276.426C97.4488 276.426 97.7105 276.347 97.9239 276.191C98.1372 276.034 98.2989 275.809 98.4088 275.516C98.5188 275.222 98.5738 274.874 98.5738 274.471C98.5738 274.101 98.5255 273.769 98.4288 273.476C98.3322 273.179 98.1772 272.944 97.9639 272.771C97.7538 272.597 97.4789 272.511 97.1388 272.511C96.8255 272.511 96.5605 272.589 96.3438 272.746C96.1272 272.899 95.9622 273.122 95.8488 273.416C95.7388 273.709 95.6838 274.061 95.6838 274.471C95.6838 274.834 95.7338 275.164 95.8338 275.461C95.9338 275.757 96.0905 275.992 96.3038 276.166C96.5172 276.339 96.7955 276.426 97.1388 276.426ZM103.16 272.561L101.995 272.561L101.995 275.776C101.995 275.959 102.013 276.094 102.05 276.181C102.09 276.264 102.155 276.317 102.245 276.341C102.338 276.364 102.465 276.376 102.625 276.376L103.19 276.376L103.19 276.996C103.126 277.019 103.03 277.039 102.9 277.056C102.773 277.072 102.615 277.081 102.425 277.081C102.068 277.081 101.791 277.032 101.595 276.936C101.398 276.839 101.26 276.696 101.18 276.506C101.103 276.316 101.065 276.082 101.065 275.806L101.065 272.561L100.225 272.561L100.225 271.886L101.09 271.886L101.315 270.381L101.995 270.381L101.995 271.881L103.16 271.881L103.16 272.561ZM105.879 277.156C105.546 277.156 105.251 277.097 104.994 276.981C104.737 276.861 104.536 276.689 104.389 276.466C104.246 276.242 104.174 275.972 104.174 275.656C104.174 275.082 104.374 274.656 104.774 274.376C105.174 274.096 105.816 273.946 106.699 273.926L107.624 273.901L107.624 273.496C107.624 273.179 107.529 272.929 107.339 272.746C107.149 272.559 106.854 272.466 106.454 272.466C106.157 272.469 105.896 272.539 105.669 272.676C105.446 272.812 105.301 273.036 105.234 273.346L104.419 273.346C104.439 273.009 104.534 272.726 104.704 272.496C104.874 272.262 105.111 272.086 105.414 271.966C105.721 271.846 106.082 271.786 106.499 271.786C106.949 271.786 107.322 271.849 107.619 271.976C107.919 272.102 108.142 272.289 108.289 272.536C108.439 272.782 108.514 273.086 108.514 273.446L108.514 277.056L107.724 277.056L107.659 276.086C107.459 276.489 107.204 276.769 106.894 276.926C106.587 277.079 106.249 277.156 105.879 277.156ZM106.159 276.491C106.332 276.491 106.504 276.459 106.674 276.396C106.847 276.332 107.006 276.247 107.149 276.141C107.292 276.031 107.406 275.909 107.489 275.776C107.576 275.639 107.621 275.499 107.624 275.356L107.624 274.471L106.854 274.486C106.461 274.492 106.131 274.532 105.864 274.606C105.601 274.679 105.402 274.794 105.269 274.951C105.139 275.107 105.074 275.312 105.074 275.566C105.074 275.856 105.174 276.082 105.374 276.246C105.577 276.409 105.839 276.491 106.159 276.491ZM111.399 277.121C111.119 277.121 110.892 277.082 110.719 277.006C110.549 276.929 110.417 276.826 110.324 276.696C110.234 276.566 110.172 276.417 110.139 276.251C110.109 276.081 110.094 275.906 110.094 275.726L110.094 269.626L111.004 269.626L111.004 275.636C111.004 275.896 111.054 276.091 111.154 276.221C111.257 276.351 111.4 276.422 111.584 276.436L111.864 276.441L111.864 277.041C111.787 277.064 111.707 277.082 111.624 277.096C111.54 277.112 111.465 277.121 111.399 277.121ZM116.807 277.156C116.473 277.156 116.178 277.097 115.922 276.981C115.665 276.861 115.463 276.689 115.317 276.466C115.173 276.242 115.102 275.972 115.102 275.656C115.102 275.082 115.302 274.656 115.702 274.376C116.102 274.096 116.743 273.946 117.627 273.926L118.552 273.901L118.552 273.496C118.552 273.179 118.457 272.929 118.267 272.746C118.077 272.559 117.782 272.466 117.382 272.466C117.085 272.469 116.823 272.539 116.597 272.676C116.373 272.812 116.228 273.036 116.162 273.346L115.347 273.346C115.367 273.009 115.462 272.726 115.632 272.496C115.802 272.262 116.038 272.086 116.342 271.966C116.648 271.846 117.01 271.786 117.427 271.786C117.877 271.786 118.25 271.849 118.547 271.976C118.847 272.102 119.07 272.289 119.217 272.536C119.367 272.782 119.442 273.086 119.442 273.446L119.442 277.056L118.652 277.056L118.587 276.086C118.387 276.489 118.132 276.769 117.822 276.926C117.515 277.079 117.177 277.156 116.807 277.156ZM117.087 276.491C117.26 276.491 117.432 276.459 117.602 276.396C117.775 276.332 117.933 276.247 118.077 276.141C118.22 276.031 118.333 275.909 118.417 275.776C118.503 275.639 118.548 275.499 118.552 275.356L118.552 274.471L117.782 274.486C117.388 274.492 117.058 274.532 116.792 274.606C116.528 274.679 116.33 274.794 116.197 274.951C116.067 275.107 116.002 275.312 116.002 275.566C116.002 275.856 116.102 276.082 116.302 276.246C116.505 276.409 116.767 276.491 117.087 276.491ZM121.021 277.056L121.021 271.886L121.911 271.886L121.911 272.636C122.055 272.409 122.251 272.211 122.501 272.041C122.751 271.871 123.076 271.786 123.476 271.786C123.663 271.786 123.853 271.817 124.046 271.881C124.243 271.944 124.423 272.039 124.586 272.166C124.75 272.292 124.876 272.447 124.966 272.631C125.126 272.377 125.343 272.174 125.616 272.021C125.89 271.864 126.198 271.786 126.541 271.786C126.721 271.786 126.91 271.814 127.106 271.871C127.303 271.924 127.485 272.021 127.651 272.161C127.821 272.297 127.96 272.489 128.066 272.736C128.173 272.979 128.226 273.292 128.226 273.676L128.226 277.056L127.296 277.056L127.296 273.766C127.296 273.452 127.246 273.211 127.146 273.041C127.046 272.867 126.915 272.746 126.751 272.676C126.591 272.606 126.42 272.571 126.236 272.571C126.076 272.571 125.906 272.602 125.726 272.666C125.546 272.729 125.393 272.836 125.266 272.986C125.14 273.136 125.076 273.341 125.076 273.601L125.076 277.056L124.156 277.056L124.156 273.496C124.156 273.292 124.101 273.122 123.991 272.986C123.885 272.849 123.75 272.746 123.586 272.676C123.426 272.606 123.266 272.571 123.106 272.571C122.93 272.571 122.751 272.606 122.571 272.676C122.395 272.746 122.245 272.857 122.121 273.011C122.001 273.161 121.941 273.357 121.941 273.601L121.941 277.056L121.021 277.056ZM131.729 277.156C131.252 277.156 130.835 277.054 130.479 276.851C130.122 276.644 129.845 276.342 129.649 275.946C129.452 275.549 129.354 275.064 129.354 274.491C129.354 273.951 129.445 273.477 129.629 273.071C129.812 272.664 130.08 272.349 130.434 272.126C130.79 271.899 131.222 271.786 131.729 271.786C132.205 271.786 132.619 271.891 132.969 272.101C133.322 272.307 133.595 272.612 133.789 273.016C133.982 273.419 134.079 273.911 134.079 274.491C134.079 275.017 133.989 275.481 133.809 275.881C133.632 276.281 133.369 276.594 133.019 276.821C132.672 277.044 132.242 277.156 131.729 277.156ZM131.729 276.426C132.039 276.426 132.3 276.347 132.514 276.191C132.727 276.034 132.889 275.809 132.999 275.516C133.109 275.222 133.164 274.874 133.164 274.471C133.164 274.101 133.115 273.769 133.019 273.476C132.922 273.179 132.767 272.944 132.554 272.771C132.344 272.597 132.069 272.511 131.729 272.511C131.415 272.511 131.15 272.589 130.934 272.746C130.717 272.899 130.552 273.122 130.439 273.416C130.329 273.709 130.274 274.061 130.274 274.471C130.274 274.834 130.324 275.164 130.424 275.461C130.524 275.757 130.68 275.992 130.894 276.166C131.107 276.339 131.385 276.426 131.729 276.426ZM137.101 277.156C136.831 277.152 136.576 277.114 136.336 277.041C136.099 276.964 135.889 276.852 135.706 276.706C135.523 276.559 135.378 276.377 135.271 276.161C135.168 275.941 135.116 275.686 135.116 275.396L135.116 271.886L136.041 271.886L136.041 275.301C136.041 275.637 136.144 275.911 136.351 276.121C136.561 276.331 136.876 276.436 137.296 276.436C137.676 276.436 137.981 276.337 138.211 276.141C138.444 275.941 138.561 275.644 138.561 275.251L138.561 271.886L139.481 271.886L139.481 277.056L138.746 277.056L138.651 276.066C138.588 276.326 138.479 276.536 138.326 276.696C138.176 276.856 137.994 276.974 137.781 277.051C137.571 277.124 137.344 277.159 137.101 277.156ZM140.992 277.056L140.992 271.886L141.887 271.886L141.887 272.636C141.97 272.492 142.085 272.357 142.232 272.231C142.382 272.104 142.562 272.002 142.772 271.926C142.985 271.849 143.23 271.811 143.507 271.811C143.834 271.811 144.134 271.876 144.407 272.006C144.684 272.136 144.904 272.339 145.067 272.616C145.234 272.889 145.317 273.242 145.317 273.676L145.317 277.056L144.392 277.056L144.392 273.766C144.392 273.362 144.285 273.064 144.072 272.871C143.862 272.674 143.589 272.576 143.252 272.576C143.019 272.576 142.8 272.614 142.597 272.691C142.394 272.764 142.229 272.877 142.102 273.031C141.975 273.181 141.912 273.371 141.912 273.601L141.912 277.056L140.992 277.056ZM149.146 272.561L147.981 272.561L147.981 275.776C147.981 275.959 147.999 276.094 148.036 276.181C148.076 276.264 148.141 276.317 148.231 276.341C148.324 276.364 148.451 276.376 148.611 276.376L149.176 276.376L149.176 276.996C149.113 277.019 149.016 277.039 148.886 277.056C148.759 277.072 148.601 277.081 148.411 277.081C148.054 277.081 147.778 277.032 147.581 276.936C147.384 276.839 147.246 276.696 147.166 276.506C147.089 276.316 147.051 276.082 147.051 275.806L147.051 272.561L146.211 272.561L146.211 271.886L147.076 271.886L147.301 270.381L147.981 270.381L147.981 271.881L149.146 271.881L149.146 272.561ZM154.517 277.156C153.847 277.156 153.316 276.926 152.922 276.466C152.529 276.006 152.332 275.334 152.332 274.451C152.332 273.914 152.411 273.446 152.567 273.046C152.727 272.646 152.964 272.336 153.277 272.116C153.591 271.896 153.981 271.786 154.447 271.786C154.694 271.786 154.912 271.817 155.102 271.881C155.296 271.944 155.462 272.024 155.602 272.121C155.742 272.217 155.856 272.317 155.942 272.421C156.032 272.524 156.099 272.619 156.142 272.706L156.142 269.626L157.072 269.626L157.072 277.056L156.367 277.056L156.267 275.996C156.234 276.096 156.181 276.212 156.107 276.346C156.034 276.476 155.931 276.604 155.797 276.731C155.664 276.854 155.492 276.956 155.282 277.036C155.076 277.116 154.821 277.156 154.517 277.156ZM154.682 276.446C155.206 276.446 155.579 276.287 155.802 275.971C156.029 275.651 156.142 275.129 156.142 274.406C156.139 274.002 156.087 273.659 155.987 273.376C155.891 273.092 155.737 272.877 155.527 272.731C155.321 272.581 155.046 272.506 154.702 272.506C154.276 272.506 153.929 272.657 153.662 272.961C153.396 273.264 153.262 273.746 153.262 274.406C153.262 275.052 153.382 275.554 153.622 275.911C153.866 276.267 154.219 276.446 154.682 276.446ZM159.259 274.686C159.259 275.012 159.313 275.309 159.419 275.576C159.529 275.839 159.694 276.049 159.914 276.206C160.138 276.362 160.416 276.441 160.749 276.441C161.079 276.441 161.363 276.364 161.599 276.211C161.839 276.057 161.993 275.836 162.059 275.546L162.934 275.546C162.871 275.896 162.731 276.191 162.514 276.431C162.298 276.671 162.036 276.852 161.729 276.976C161.423 277.096 161.103 277.156 160.769 277.156C160.286 277.156 159.861 277.051 159.494 276.841C159.128 276.631 158.841 276.329 158.634 275.936C158.428 275.542 158.324 275.071 158.324 274.521C158.324 273.977 158.418 273.501 158.604 273.091C158.791 272.681 159.061 272.361 159.414 272.131C159.771 271.901 160.199 271.786 160.699 271.786C161.186 271.786 161.598 271.891 161.934 272.101C162.271 272.311 162.526 272.607 162.699 272.991C162.876 273.371 162.964 273.822 162.964 274.346L162.964 274.686L159.259 274.686ZM159.264 274.061L162.074 274.061C162.074 273.764 162.024 273.497 161.924 273.261C161.824 273.021 161.671 272.832 161.464 272.696C161.261 272.556 161.004 272.486 160.694 272.486C160.371 272.486 160.103 272.564 159.889 272.721C159.679 272.874 159.521 273.072 159.414 273.316C159.311 273.556 159.261 273.804 159.264 274.061ZM166.099 277.156C165.429 277.156 164.898 276.926 164.504 276.466C164.111 276.006 163.914 275.334 163.914 274.451C163.914 273.914 163.993 273.446 164.149 273.046C164.309 272.646 164.546 272.336 164.859 272.116C165.173 271.896 165.563 271.786 166.029 271.786C166.276 271.786 166.494 271.817 166.684 271.881C166.878 271.944 167.044 272.024 167.184 272.121C167.324 272.217 167.438 272.317 167.524 272.421C167.614 272.524 167.681 272.619 167.724 272.706L167.724 269.626L168.654 269.626L168.654 277.056L167.949 277.056L167.849 275.996C167.816 276.096 167.763 276.212 167.689 276.346C167.616 276.476 167.513 276.604 167.379 276.731C167.246 276.854 167.074 276.956 166.864 277.036C166.658 277.116 166.403 277.156 166.099 277.156ZM166.264 276.446C166.788 276.446 167.161 276.287 167.384 275.971C167.611 275.651 167.724 275.129 167.724 274.406C167.721 274.002 167.669 273.659 167.569 273.376C167.473 273.092 167.319 272.877 167.109 272.731C166.903 272.581 166.628 272.506 166.284 272.506C165.858 272.506 165.511 272.657 165.244 272.961C164.978 273.264 164.844 273.746 164.844 274.406C164.844 275.052 164.964 275.554 165.204 275.911C165.448 276.267 165.801 276.446 166.264 276.446ZM172.082 277.156C171.811 277.152 171.557 277.114 171.316 277.041C171.08 276.964 170.87 276.852 170.686 276.706C170.503 276.559 170.358 276.377 170.251 276.161C170.148 275.941 170.096 275.686 170.096 275.396L170.096 271.886L171.022 271.886L171.022 275.301C171.022 275.637 171.125 275.911 171.332 276.121C171.542 276.331 171.857 276.436 172.277 276.436C172.656 276.436 172.962 276.337 173.191 276.141C173.425 275.941 173.542 275.644 173.542 275.251L173.542 271.886L174.462 271.886L174.462 277.056L173.727 277.056L173.632 276.066C173.568 276.326 173.46 276.536 173.307 276.696C173.156 276.856 172.975 276.974 172.762 277.051C172.552 277.124 172.325 277.159 172.082 277.156ZM177.964 271.786C178.334 271.786 178.667 271.857 178.964 272.001C179.261 272.141 179.503 272.341 179.689 272.601C179.879 272.861 179.997 273.167 180.044 273.521L179.224 273.521C179.194 273.341 179.124 273.176 179.014 273.026C178.908 272.876 178.766 272.756 178.589 272.666C178.412 272.576 178.206 272.531 177.969 272.531C177.526 272.531 177.166 272.691 176.889 273.011C176.612 273.331 176.474 273.821 176.474 274.481C176.474 275.077 176.601 275.556 176.854 275.916C177.111 276.272 177.487 276.451 177.984 276.451C178.221 276.451 178.426 276.406 178.599 276.316C178.776 276.222 178.917 276.101 179.024 275.951C179.131 275.797 179.199 275.634 179.229 275.461L180.034 275.461C179.991 275.807 179.874 276.107 179.684 276.361C179.494 276.614 179.251 276.811 178.954 276.951C178.661 277.087 178.331 277.156 177.964 277.156C177.501 277.156 177.089 277.054 176.729 276.851C176.372 276.647 176.092 276.347 175.889 275.951C175.686 275.554 175.584 275.067 175.584 274.491C175.584 273.951 175.676 273.479 175.859 273.076C176.046 272.669 176.316 272.352 176.669 272.126C177.026 271.899 177.457 271.786 177.964 271.786ZM183.755 272.561L182.59 272.561L182.59 275.776C182.59 275.959 182.609 276.094 182.645 276.181C182.685 276.264 182.75 276.317 182.84 276.341C182.934 276.364 183.06 276.376 183.22 276.376L183.785 276.376L183.785 276.996C183.722 277.019 183.625 277.039 183.495 277.056C183.369 277.072 183.21 277.081 183.02 277.081C182.664 277.081 182.387 277.032 182.19 276.936C181.994 276.839 181.855 276.696 181.775 276.506C181.699 276.316 181.66 276.082 181.66 275.806L181.66 272.561L180.82 272.561L180.82 271.886L181.685 271.886L181.91 270.381L182.59 270.381L182.59 271.881L183.755 271.881L183.755 272.561ZM185.607 274.686C185.607 275.012 185.66 275.309 185.767 275.576C185.877 275.839 186.042 276.049 186.262 276.206C186.485 276.362 186.764 276.441 187.097 276.441C187.427 276.441 187.71 276.364 187.947 276.211C188.187 276.057 188.34 275.836 188.407 275.546L189.282 275.546C189.219 275.896 189.079 276.191 188.862 276.431C188.645 276.671 188.384 276.852 188.077 276.976C187.77 277.096 187.45 277.156 187.117 277.156C186.634 277.156 186.209 277.051 185.842 276.841C185.475 276.631 185.189 276.329 184.982 275.936C184.775 275.542 184.672 275.071 184.672 274.521C184.672 273.977 184.765 273.501 184.952 273.091C185.139 272.681 185.409 272.361 185.762 272.131C186.119 271.901 186.547 271.786 187.047 271.786C187.534 271.786 187.945 271.891 188.282 272.101C188.619 272.311 188.874 272.607 189.047 272.991C189.224 273.371 189.312 273.822 189.312 274.346L189.312 274.686L185.607 274.686ZM185.612 274.061L188.422 274.061C188.422 273.764 188.372 273.497 188.272 273.261C188.172 273.021 188.019 272.832 187.812 272.696C187.609 272.556 187.352 272.486 187.042 272.486C186.719 272.486 186.45 272.564 186.237 272.721C186.027 272.874 185.869 273.072 185.762 273.316C185.659 273.556 185.609 273.804 185.612 274.061ZM192.447 277.156C191.777 277.156 191.245 276.926 190.852 276.466C190.459 276.006 190.262 275.334 190.262 274.451C190.262 273.914 190.34 273.446 190.497 273.046C190.657 272.646 190.894 272.336 191.207 272.116C191.52 271.896 191.91 271.786 192.377 271.786C192.624 271.786 192.842 271.817 193.032 271.881C193.225 271.944 193.392 272.024 193.532 272.121C193.672 272.217 193.785 272.317 193.872 272.421C193.962 272.524 194.029 272.619 194.072 272.706L194.072 269.626L195.002 269.626L195.002 277.056L194.297 277.056L194.197 275.996C194.164 276.096 194.11 276.212 194.037 276.346C193.964 276.476 193.86 276.604 193.727 276.731C193.594 276.854 193.422 276.956 193.212 277.036C193.005 277.116 192.75 277.156 192.447 277.156ZM192.612 276.446C193.135 276.446 193.509 276.287 193.732 275.971C193.959 275.651 194.072 275.129 194.072 274.406C194.069 274.002 194.017 273.659 193.917 273.376C193.82 273.092 193.667 272.877 193.457 272.731C193.25 272.581 192.975 272.506 192.632 272.506C192.205 272.506 191.859 272.657 191.592 272.961C191.325 273.264 191.192 273.746 191.192 274.406C191.192 275.052 191.312 275.554 191.552 275.911C191.795 276.267 192.149 276.446 192.612 276.446ZM201.754 271.886L201.754 272.561L200.499 272.561L200.499 277.056L199.569 277.056L199.569 272.561L198.479 272.561L198.479 271.886L199.569 271.886L199.569 271.086C199.569 270.676 199.674 270.364 199.884 270.151C200.094 269.934 200.407 269.826 200.824 269.826L201.799 269.826L201.804 270.481L201.029 270.481C200.819 270.481 200.676 270.537 200.599 270.651C200.522 270.764 200.484 270.936 200.484 271.166L200.484 271.886L201.754 271.886ZM202.896 277.056L202.896 271.886L203.776 271.886L203.776 272.881C203.863 272.634 203.985 272.431 204.141 272.271C204.298 272.107 204.476 271.986 204.676 271.906C204.88 271.826 205.09 271.786 205.306 271.786C205.383 271.786 205.458 271.791 205.531 271.801C205.605 271.811 205.661 271.827 205.701 271.851L205.701 272.746C205.651 272.722 205.586 272.707 205.506 272.701C205.43 272.691 205.365 272.686 205.311 272.686C205.105 272.672 204.911 272.686 204.731 272.726C204.551 272.762 204.393 272.827 204.256 272.921C204.12 273.014 204.011 273.137 203.931 273.291C203.855 273.441 203.816 273.624 203.816 273.841L203.816 277.056L202.896 277.056ZM208.711 277.156C208.234 277.156 207.818 277.054 207.461 276.851C207.104 276.644 206.828 276.342 206.631 275.946C206.434 275.549 206.336 275.064 206.336 274.491C206.336 273.951 206.428 273.477 206.611 273.071C206.794 272.664 207.063 272.349 207.416 272.126C207.773 271.899 208.204 271.786 208.711 271.786C209.188 271.786 209.601 271.891 209.951 272.101C210.304 272.307 210.578 272.612 210.771 273.016C210.964 273.419 211.061 273.911 211.061 274.491C211.061 275.017 210.971 275.481 210.791 275.881C210.614 276.281 210.351 276.594 210.001 276.821C209.654 277.044 209.224 277.156 208.711 277.156ZM208.711 276.426C209.021 276.426 209.283 276.347 209.496 276.191C209.709 276.034 209.871 275.809 209.981 275.516C210.091 275.222 210.146 274.874 210.146 274.471C210.146 274.101 210.098 273.769 210.001 273.476C209.904 273.179 209.749 272.944 209.536 272.771C209.326 272.597 209.051 272.511 208.711 272.511C208.398 272.511 208.133 272.589 207.916 272.746C207.699 272.899 207.534 273.122 207.421 273.416C207.311 273.709 207.256 274.061 207.256 274.471C207.256 274.834 207.306 275.164 207.406 275.461C207.506 275.757 207.663 275.992 207.876 276.166C208.089 276.339 208.368 276.426 208.711 276.426ZM212.271 277.056L212.271 271.886L213.161 271.886L213.161 272.636C213.305 272.409 213.501 272.211 213.751 272.041C214.001 271.871 214.326 271.786 214.726 271.786C214.913 271.786 215.103 271.817 215.296 271.881C215.493 271.944 215.673 272.039 215.836 272.166C216 272.292 216.126 272.447 216.216 272.631C216.376 272.377 216.593 272.174 216.866 272.021C217.14 271.864 217.448 271.786 217.791 271.786C217.971 271.786 218.16 271.814 218.356 271.871C218.553 271.924 218.735 272.021 218.901 272.161C219.071 272.297 219.21 272.489 219.316 272.736C219.423 272.979 219.476 273.292 219.476 273.676L219.476 277.056L218.546 277.056L218.546 273.766C218.546 273.452 218.496 273.211 218.396 273.041C218.296 272.867 218.165 272.746 218.001 272.676C217.841 272.606 217.67 272.571 217.486 272.571C217.326 272.571 217.156 272.602 216.976 272.666C216.796 272.729 216.643 272.836 216.516 272.986C216.39 273.136 216.326 273.341 216.326 273.601L216.326 277.056L215.406 277.056L215.406 273.496C215.406 273.292 215.351 273.122 215.241 272.986C215.135 272.849 215 272.746 214.836 272.676C214.676 272.606 214.516 272.571 214.356 272.571C214.18 272.571 214.001 272.606 213.821 272.676C213.645 272.746 213.495 272.857 213.371 273.011C213.251 273.161 213.191 273.357 213.191 273.601L213.191 277.056L212.271 277.056ZM223.67 278.706C223.367 278.706 223.158 278.684 223.045 278.641C222.932 278.597 222.875 278.576 222.875 278.576L222.875 277.976L223.4 277.986C223.593 277.992 223.753 277.979 223.88 277.946C224.007 277.912 224.108 277.867 224.185 277.811C224.262 277.754 224.32 277.691 224.36 277.621C224.403 277.551 224.438 277.484 224.465 277.421L224.645 276.931L222.625 271.886L223.56 271.886L225.085 275.876L226.6 271.886L227.505 271.886L225.325 277.446C225.192 277.772 225.042 278.027 224.875 278.211C224.712 278.394 224.528 278.522 224.325 278.596C224.125 278.669 223.907 278.706 223.67 278.706ZM230.362 277.156C229.885 277.156 229.468 277.054 229.112 276.851C228.755 276.644 228.478 276.342 228.282 275.946C228.085 275.549 227.987 275.064 227.987 274.491C227.987 273.951 228.078 273.477 228.262 273.071C228.445 272.664 228.713 272.349 229.066 272.126C229.423 271.899 229.855 271.786 230.362 271.786C230.838 271.786 231.252 271.891 231.602 272.101C231.955 272.307 232.228 272.612 232.422 273.016C232.615 273.419 232.712 273.911 232.712 274.491C232.712 275.017 232.622 275.481 232.441 275.881C232.265 276.281 232.002 276.594 231.652 276.821C231.305 277.044 230.875 277.156 230.362 277.156ZM230.362 276.426C230.672 276.426 230.933 276.347 231.146 276.191C231.36 276.034 231.521 275.809 231.632 275.516C231.742 275.222 231.797 274.874 231.797 274.471C231.797 274.101 231.748 273.769 231.652 273.476C231.555 273.179 231.4 272.944 231.187 272.771C230.977 272.597 230.702 272.511 230.362 272.511C230.048 272.511 229.783 272.589 229.566 272.746C229.35 272.899 229.185 273.122 229.072 273.416C228.962 273.709 228.907 274.061 228.907 274.471C228.907 274.834 228.956 275.164 229.057 275.461C229.157 275.757 229.313 275.992 229.527 276.166C229.74 276.339 230.018 276.426 230.362 276.426ZM235.734 277.156C235.464 277.152 235.209 277.114 234.969 277.041C234.732 276.964 234.522 276.852 234.339 276.706C234.156 276.559 234.011 276.377 233.904 276.161C233.801 275.941 233.749 275.686 233.749 275.396L233.749 271.886L234.674 271.886L234.674 275.301C234.674 275.637 234.777 275.911 234.984 276.121C235.194 276.331 235.509 276.436 235.929 276.436C236.309 276.436 236.614 276.337 236.844 276.141C237.077 275.941 237.194 275.644 237.194 275.251L237.194 271.886L238.114 271.886L238.114 277.056L237.379 277.056L237.284 276.066C237.221 276.326 237.112 276.536 236.959 276.696C236.809 276.856 236.627 276.974 236.414 277.051C236.204 277.124 235.977 277.159 235.734 277.156ZM239.625 277.056L239.625 271.886L240.505 271.886L240.505 272.881C240.592 272.634 240.713 272.431 240.87 272.271C241.027 272.107 241.205 271.986 241.405 271.906C241.608 271.826 241.818 271.786 242.035 271.786C242.112 271.786 242.187 271.791 242.26 271.801C242.333 271.811 242.39 271.827 242.43 271.851L242.43 272.746C242.38 272.722 242.315 272.707 242.235 272.701C242.158 272.691 242.093 272.686 242.04 272.686C241.833 272.672 241.64 272.686 241.46 272.726C241.28 272.762 241.122 272.827 240.985 272.921C240.848 273.014 240.74 273.137 240.66 273.291C240.583 273.441 240.545 273.624 240.545 273.841L240.545 277.056L239.625 277.056ZM92.6271 291.156C92.2938 291.156 91.9988 291.097 91.7421 290.981C91.4855 290.861 91.2838 290.689 91.1371 290.466C90.9938 290.242 90.9221 289.972 90.9221 289.656C90.9221 289.082 91.1221 288.656 91.5221 288.376C91.9221 288.096 92.5638 287.946 93.4471 287.926L94.3721 287.901L94.3721 287.496C94.3721 287.179 94.2771 286.929 94.0871 286.746C93.8971 286.559 93.6021 286.466 93.2021 286.466C92.9055 286.469 92.6438 286.539 92.4171 286.676C92.1938 286.812 92.0488 287.036 91.9821 287.346L91.1671 287.346C91.1871 287.009 91.2821 286.726 91.4521 286.496C91.6221 286.262 91.8588 286.086 92.1621 285.966C92.4688 285.846 92.8305 285.786 93.2471 285.786C93.6971 285.786 94.0705 285.849 94.3671 285.976C94.6671 286.102 94.8905 286.289 95.0371 286.536C95.1871 286.782 95.2621 287.086 95.2621 287.446L95.2621 291.056L94.4721 291.056L94.4071 290.086C94.2071 290.489 93.9521 290.769 93.6421 290.926C93.3355 291.079 92.9971 291.156 92.6271 291.156ZM92.9071 290.491C93.0805 290.491 93.2521 290.459 93.4221 290.396C93.5955 290.332 93.7538 290.247 93.8971 290.141C94.0405 290.031 94.1538 289.909 94.2371 289.776C94.3238 289.639 94.3688 289.499 94.3721 289.356L94.3721 288.471L93.6021 288.486C93.2088 288.492 92.8788 288.532 92.6121 288.606C92.3488 288.679 92.1505 288.794 92.0171 288.951C91.8871 289.107 91.8221 289.312 91.8221 289.566C91.8221 289.856 91.9221 290.082 92.1221 290.246C92.3255 290.409 92.5871 290.491 92.9071 290.491ZM98.9017 285.786C99.2717 285.786 99.605 285.857 99.9017 286.001C100.198 286.141 100.44 286.341 100.627 286.601C100.817 286.861 100.935 287.167 100.982 287.521L100.162 287.521C100.132 287.341 100.062 287.176 99.9517 287.026C99.845 286.876 99.7033 286.756 99.5267 286.666C99.35 286.576 99.1433 286.531 98.9067 286.531C98.4633 286.531 98.1033 286.691 97.8267 287.011C97.55 287.331 97.4117 287.821 97.4117 288.481C97.4117 289.077 97.5383 289.556 97.7917 289.916C98.0483 290.272 98.425 290.451 98.9217 290.451C99.1583 290.451 99.3633 290.406 99.5367 290.316C99.7133 290.222 99.855 290.101 99.9617 289.951C100.068 289.797 100.137 289.634 100.167 289.461L100.972 289.461C100.928 289.807 100.812 290.107 100.622 290.361C100.432 290.614 100.188 290.811 99.8917 290.951C99.5983 291.087 99.2683 291.156 98.9017 291.156C98.4383 291.156 98.0267 291.054 97.6667 290.851C97.31 290.647 97.03 290.347 96.8267 289.951C96.6233 289.554 96.5217 289.067 96.5217 288.491C96.5217 287.951 96.6133 287.479 96.7967 287.076C96.9833 286.669 97.2533 286.352 97.6067 286.126C97.9633 285.899 98.395 285.786 98.9017 285.786ZM104.292 285.786C104.662 285.786 104.996 285.857 105.292 286.001C105.589 286.141 105.831 286.341 106.017 286.601C106.207 286.861 106.326 287.167 106.372 287.521L105.552 287.521C105.522 287.341 105.452 287.176 105.342 287.026C105.236 286.876 105.094 286.756 104.917 286.666C104.741 286.576 104.534 286.531 104.297 286.531C103.854 286.531 103.494 286.691 103.217 287.011C102.941 287.331 102.802 287.821 102.802 288.481C102.802 289.077 102.929 289.556 103.182 289.916C103.439 290.272 103.816 290.451 104.312 290.451C104.549 290.451 104.754 290.406 104.927 290.316C105.104 290.222 105.246 290.101 105.352 289.951C105.459 289.797 105.527 289.634 105.557 289.461L106.362 289.461C106.319 289.807 106.202 290.107 106.012 290.361C105.822 290.614 105.579 290.811 105.282 290.951C104.989 291.087 104.659 291.156 104.292 291.156C103.829 291.156 103.417 291.054 103.057 290.851C102.701 290.647 102.421 290.347 102.217 289.951C102.014 289.554 101.912 289.067 101.912 288.491C101.912 287.951 102.004 287.479 102.187 287.076C102.374 286.669 102.644 286.352 102.997 286.126C103.354 285.899 103.786 285.786 104.292 285.786ZM109.678 291.156C109.201 291.156 108.785 291.054 108.428 290.851C108.071 290.644 107.795 290.342 107.598 289.946C107.401 289.549 107.303 289.064 107.303 288.491C107.303 287.951 107.395 287.477 107.578 287.071C107.761 286.664 108.03 286.349 108.383 286.126C108.74 285.899 109.171 285.786 109.678 285.786C110.155 285.786 110.568 285.891 110.918 286.101C111.271 286.307 111.545 286.612 111.738 287.016C111.931 287.419 112.028 287.911 112.028 288.491C112.028 289.017 111.938 289.481 111.758 289.881C111.581 290.281 111.318 290.594 110.968 290.821C110.621 291.044 110.191 291.156 109.678 291.156ZM109.678 290.426C109.988 290.426 110.25 290.347 110.463 290.191C110.676 290.034 110.838 289.809 110.948 289.516C111.058 289.222 111.113 288.874 111.113 288.471C111.113 288.101 111.065 287.769 110.968 287.476C110.871 287.179 110.716 286.944 110.503 286.771C110.293 286.597 110.018 286.511 109.678 286.511C109.365 286.511 109.1 286.589 108.883 286.746C108.666 286.899 108.501 287.122 108.388 287.416C108.278 287.709 108.223 288.061 108.223 288.471C108.223 288.834 108.273 289.164 108.373 289.461C108.473 289.757 108.63 289.992 108.843 290.166C109.056 290.339 109.335 290.426 109.678 290.426ZM115.05 291.156C114.78 291.152 114.525 291.114 114.285 291.041C114.049 290.964 113.839 290.852 113.655 290.706C113.472 290.559 113.327 290.377 113.22 290.161C113.117 289.941 113.065 289.686 113.065 289.396L113.065 285.886L113.99 285.886L113.99 289.301C113.99 289.637 114.094 289.911 114.3 290.121C114.51 290.331 114.825 290.436 115.245 290.436C115.625 290.436 115.93 290.337 116.16 290.141C116.394 289.941 116.51 289.644 116.51 289.251L116.51 285.886L117.43 285.886L117.43 291.056L116.695 291.056L116.6 290.066C116.537 290.326 116.429 290.536 116.275 290.696C116.125 290.856 115.944 290.974 115.73 291.051C115.52 291.124 115.294 291.159 115.05 291.156ZM118.941 291.056L118.941 285.886L119.836 285.886L119.836 286.636C119.92 286.492 120.035 286.357 120.181 286.231C120.331 286.104 120.511 286.002 120.721 285.926C120.935 285.849 121.18 285.811 121.456 285.811C121.783 285.811 122.083 285.876 122.356 286.006C122.633 286.136 122.853 286.339 123.016 286.616C123.183 286.889 123.266 287.242 123.266 287.676L123.266 291.056L122.341 291.056L122.341 287.766C122.341 287.362 122.235 287.064 122.021 286.871C121.811 286.674 121.538 286.576 121.201 286.576C120.968 286.576 120.75 286.614 120.546 286.691C120.343 286.764 120.178 286.877 120.051 287.031C119.925 287.181 119.861 287.371 119.861 287.601L119.861 291.056L118.941 291.056ZM127.095 286.561L125.93 286.561L125.93 289.776C125.93 289.959 125.949 290.094 125.985 290.181C126.025 290.264 126.09 290.317 126.18 290.341C126.274 290.364 126.4 290.376 126.56 290.376L127.125 290.376L127.125 290.996C127.062 291.019 126.965 291.039 126.835 291.056C126.709 291.072 126.55 291.081 126.36 291.081C126.004 291.081 125.727 291.032 125.53 290.936C125.334 290.839 125.195 290.696 125.115 290.506C125.039 290.316 125 290.082 125 289.806L125 286.561L124.16 286.561L124.16 285.886L125.025 285.886L125.25 284.381L125.93 284.381L125.93 285.881L127.095 285.881L127.095 286.561ZM131.728 285.886L131.728 291.056L130.833 291.056L130.833 285.886L131.728 285.886ZM131.748 283.831L131.748 284.791L130.803 284.791L130.803 283.831L131.748 283.831ZM135.19 291.156C134.83 291.156 134.495 291.101 134.185 290.991C133.879 290.877 133.624 290.702 133.42 290.466C133.217 290.226 133.089 289.921 133.035 289.551L133.875 289.551C133.922 289.754 134.005 289.924 134.125 290.061C134.249 290.194 134.402 290.296 134.585 290.366C134.769 290.432 134.969 290.466 135.185 290.466C135.532 290.466 135.812 290.401 136.025 290.271C136.239 290.141 136.345 289.941 136.345 289.671C136.345 289.481 136.289 289.329 136.175 289.216C136.065 289.099 135.894 289.014 135.66 288.961L134.59 288.696C134.174 288.596 133.84 288.439 133.59 288.226C133.34 288.012 133.215 287.714 133.215 287.331C133.212 287.027 133.284 286.761 133.43 286.531C133.577 286.301 133.797 286.119 134.09 285.986C134.384 285.852 134.749 285.786 135.185 285.786C135.745 285.786 136.197 285.912 136.54 286.166C136.887 286.416 137.067 286.784 137.08 287.271L136.265 287.271C136.232 287.024 136.12 286.829 135.93 286.686C135.744 286.539 135.492 286.466 135.175 286.466C134.845 286.466 134.577 286.532 134.37 286.666C134.164 286.796 134.06 286.999 134.06 287.276C134.06 287.459 134.134 287.604 134.28 287.711C134.427 287.814 134.644 287.901 134.93 287.971L135.965 288.231C136.205 288.294 136.402 288.377 136.555 288.481C136.712 288.584 136.835 288.699 136.925 288.826C137.019 288.952 137.084 289.086 137.12 289.226C137.16 289.362 137.18 289.494 137.18 289.621C137.18 289.937 137.1 290.211 136.94 290.441C136.784 290.667 136.557 290.844 136.26 290.971C135.967 291.094 135.61 291.156 135.19 291.156ZM146.422 288.301C146.422 288.884 146.327 289.391 146.137 289.821C145.947 290.247 145.638 290.577 145.212 290.811C144.788 291.041 144.227 291.156 143.527 291.156C142.823 291.156 142.26 291.039 141.837 290.806C141.413 290.569 141.107 290.234 140.917 289.801C140.73 289.367 140.637 288.851 140.637 288.251L140.637 283.826L142.122 283.826L142.122 288.361C142.122 288.901 142.252 289.296 142.512 289.546C142.772 289.792 143.11 289.916 143.527 289.916C143.803 289.916 144.048 289.862 144.262 289.756C144.475 289.646 144.642 289.477 144.762 289.251C144.885 289.021 144.947 288.724 144.947 288.361L144.947 283.826L146.422 283.826L146.422 288.301ZM150.588 291.156C150.231 291.156 149.881 291.111 149.538 291.021C149.195 290.931 148.881 290.796 148.598 290.616C148.315 290.436 148.08 290.211 147.893 289.941C147.71 289.671 147.6 289.354 147.563 288.991L149.058 288.991C149.108 289.211 149.203 289.396 149.343 289.546C149.483 289.696 149.66 289.811 149.873 289.891C150.086 289.971 150.323 290.011 150.583 290.011C150.85 290.011 151.093 289.977 151.313 289.911C151.533 289.844 151.71 289.744 151.843 289.611C151.976 289.474 152.043 289.304 152.043 289.101C152.043 288.917 151.988 288.767 151.878 288.651C151.771 288.534 151.626 288.439 151.443 288.366C151.26 288.292 151.051 288.232 150.818 288.186L149.568 287.931C149.021 287.827 148.588 287.611 148.268 287.281C147.948 286.947 147.783 286.504 147.773 285.951C147.77 285.497 147.89 285.106 148.133 284.776C148.38 284.442 148.713 284.186 149.133 284.006C149.556 283.826 150.03 283.736 150.553 283.736C151.176 283.736 151.7 283.834 152.123 284.031C152.55 284.224 152.873 284.487 153.093 284.821C153.316 285.151 153.431 285.519 153.438 285.926L151.973 285.926C151.946 285.672 151.87 285.471 151.743 285.321C151.616 285.171 151.453 285.062 151.253 284.996C151.056 284.929 150.831 284.896 150.578 284.896C150.385 284.896 150.208 284.917 150.048 284.961C149.891 285.004 149.758 285.066 149.648 285.146C149.538 285.222 149.453 285.314 149.393 285.421C149.333 285.527 149.303 285.647 149.303 285.781C149.303 285.991 149.373 286.161 149.513 286.291C149.653 286.421 149.915 286.527 150.298 286.611L151.538 286.866C151.981 286.952 152.333 287.081 152.593 287.251C152.856 287.421 153.053 287.612 153.183 287.826C153.316 288.039 153.403 288.257 153.443 288.481C153.486 288.701 153.508 288.904 153.508 289.091C153.508 289.481 153.385 289.832 153.138 290.146C152.895 290.456 152.555 290.702 152.118 290.886C151.681 291.066 151.171 291.156 150.588 291.156ZM159.651 291.156C158.784 291.156 158.081 290.982 157.541 290.636C157.001 290.286 156.691 289.747 156.611 289.021L158.131 288.991C158.211 289.321 158.382 289.572 158.646 289.746C158.912 289.916 159.246 290.001 159.646 290.001C159.886 290.001 160.097 289.962 160.281 289.886C160.467 289.806 160.614 289.699 160.721 289.566C160.827 289.429 160.881 289.274 160.881 289.101C160.881 288.834 160.796 288.636 160.626 288.506C160.456 288.372 160.194 288.266 159.841 288.186L158.656 287.931C158.106 287.821 157.664 287.602 157.331 287.276C157.001 286.946 156.832 286.504 156.826 285.951C156.822 285.497 156.944 285.106 157.191 284.776C157.441 284.442 157.779 284.186 158.206 284.006C158.636 283.826 159.117 283.736 159.651 283.736C160.197 283.736 160.669 283.834 161.066 284.031C161.466 284.224 161.772 284.486 161.986 284.816C162.202 285.142 162.307 285.504 162.301 285.901L160.826 285.926C160.779 285.606 160.672 285.354 160.506 285.171C160.339 284.987 160.062 284.896 159.676 284.896C159.476 284.896 159.297 284.917 159.141 284.961C158.984 285.004 158.849 285.066 158.736 285.146C158.622 285.222 158.536 285.314 158.476 285.421C158.419 285.527 158.391 285.647 158.391 285.781C158.391 285.991 158.461 286.157 158.601 286.281C158.744 286.401 159.012 286.512 159.406 286.616L160.571 286.901C161.227 287.057 161.701 287.326 161.991 287.706C162.284 288.086 162.431 288.547 162.431 289.091C162.431 289.507 162.316 289.871 162.086 290.181C161.859 290.491 161.537 290.731 161.121 290.901C160.704 291.071 160.214 291.156 159.651 291.156ZM159.026 282.791L160.291 282.791L160.291 284.091L159.026 284.091L159.026 282.791ZM159.001 290.711L160.261 290.711L160.261 292.011L159.001 292.011L159.001 290.711ZM164.642 291.056L164.642 285.641L163.352 285.641L163.352 284.816C163.766 284.816 164.099 284.777 164.352 284.701C164.609 284.621 164.801 284.507 164.927 284.361C165.054 284.211 165.129 284.032 165.152 283.826L166.122 283.826L166.122 291.056L164.642 291.056ZM170.43 283.726C171.29 283.726 171.968 284.047 172.465 284.691C172.961 285.331 173.21 286.252 173.21 287.456C173.21 288.652 172.965 289.571 172.475 290.211C171.985 290.847 171.303 291.166 170.43 291.166C169.553 291.166 168.868 290.847 168.375 290.211C167.885 289.574 167.64 288.657 167.64 287.461C167.64 286.661 167.753 285.982 167.98 285.426C168.206 284.869 168.528 284.447 168.945 284.161C169.361 283.871 169.856 283.726 170.43 283.726ZM170.43 289.971C170.86 289.971 171.175 289.779 171.375 289.396C171.575 289.009 171.675 288.364 171.675 287.461C171.675 286.537 171.573 285.876 171.37 285.476C171.166 285.076 170.851 284.876 170.425 284.876C169.998 284.876 169.68 285.077 169.47 285.481C169.263 285.884 169.16 286.544 169.16 287.461C169.16 288.361 169.263 289.004 169.47 289.391C169.676 289.777 169.996 289.971 170.43 289.971ZM177.331 283.826L178.766 283.826L178.766 288.231L179.881 288.231L179.881 289.456L178.766 289.456L178.766 291.056L177.361 291.056L177.366 289.456L174.036 289.456L174.036 288.256L177.331 283.826ZM175.386 288.231L177.366 288.231L177.366 285.581L175.386 288.231ZM180.663 291.056L180.663 289.466L182.263 289.466L182.263 291.056L180.663 291.056ZM185.959 291.166C185.509 291.166 185.089 291.079 184.699 290.906C184.309 290.732 183.99 290.489 183.744 290.176C183.497 289.859 183.359 289.489 183.329 289.066L184.719 289.066C184.779 289.346 184.912 289.574 185.119 289.751C185.325 289.924 185.585 290.011 185.899 290.011C186.245 290.011 186.549 289.929 186.809 289.766C187.072 289.602 187.269 289.342 187.399 288.986C187.532 288.629 187.579 288.162 187.539 287.586C187.445 287.762 187.315 287.917 187.149 288.051C186.985 288.181 186.794 288.282 186.574 288.356C186.354 288.426 186.109 288.461 185.839 288.461C185.349 288.461 184.914 288.369 184.534 288.186C184.157 287.999 183.86 287.736 183.644 287.396C183.43 287.052 183.324 286.646 183.324 286.176C183.324 285.702 183.437 285.281 183.664 284.911C183.89 284.541 184.207 284.251 184.614 284.041C185.02 283.831 185.497 283.726 186.044 283.726C186.657 283.726 187.185 283.872 187.629 284.166C188.075 284.456 188.417 284.869 188.654 285.406C188.894 285.939 189.014 286.567 189.014 287.291C189.014 288.154 188.89 288.874 188.644 289.451C188.4 290.024 188.05 290.454 187.594 290.741C187.137 291.024 186.592 291.166 185.959 291.166ZM186.089 287.301C186.292 287.301 186.489 287.256 186.679 287.166C186.872 287.072 187.03 286.956 187.154 286.816C187.277 286.676 187.339 286.531 187.339 286.381C187.342 286.057 187.29 285.781 187.184 285.551C187.08 285.317 186.934 285.139 186.744 285.016C186.557 284.892 186.339 284.831 186.089 284.831C185.859 284.831 185.654 284.884 185.474 284.991C185.294 285.097 185.152 285.247 185.049 285.441C184.945 285.634 184.894 285.857 184.894 286.111C184.894 286.487 185.004 286.781 185.224 286.991C185.444 287.197 185.732 287.301 186.089 287.301ZM192.656 283.726C193.516 283.726 194.195 284.047 194.691 284.691C195.188 285.331 195.436 286.252 195.436 287.456C195.436 288.652 195.191 289.571 194.701 290.211C194.211 290.847 193.53 291.166 192.656 291.166C191.78 291.166 191.095 290.847 190.601 290.211C190.111 289.574 189.866 288.657 189.866 287.461C189.866 286.661 189.98 285.982 190.206 285.426C190.433 284.869 190.755 284.447 191.171 284.161C191.588 283.871 192.083 283.726 192.656 283.726ZM192.656 289.971C193.086 289.971 193.401 289.779 193.601 289.396C193.801 289.009 193.901 288.364 193.901 287.461C193.901 286.537 193.8 285.876 193.596 285.476C193.393 285.076 193.078 284.876 192.651 284.876C192.225 284.876 191.906 285.077 191.696 285.481C191.49 285.884 191.386 286.544 191.386 287.461C191.386 288.361 191.49 289.004 191.696 289.391C191.903 289.777 192.223 289.971 192.656 289.971ZM196.422 291.056L196.422 289.876L197.522 289.876L197.522 291.056L196.422 291.056Z" fill="#36536B" fill-opacity="1.000000" fill-rule="evenodd"/>
	</g>
	<rect id="Group 29" width="218.000000" height="87.000000" transform="translate(74.432129 221.430542)" stroke="#979797" stroke-opacity="1.000000" stroke-width="1.000000"/>
</svg>
