<svg width="131.000000" height="17.000000" viewBox="0 0 131 17" fill="none" xmlns="http://www.w3.org/2000/svg" xmlns:xlink="http://www.w3.org/1999/xlink">
	<desc>
			Created with Pixso.
	</desc>
	<defs/>
	<path id="Shape" d="M65.21 11.0599L56.554 11.0599L58.4656 14.0298L67.2295 14.0298L69.0334 16.9998L72.8564 16.9998L62.5984 1.00781C62.1675 0.376221 61.427 0 60.6328 0C59.8115 0 59.071 0.389771 58.627 1.03467L48.4092 16.9998L52.2322 16.9998L60.6328 3.70905L65.21 11.0599ZM48.3013 5.85907C48.3013 9.00366 45.7437 11.5435 42.5933 11.5435L42.5935 11.5439L41.1125 11.5439L47.6282 17L42.9163 17L33.2317 8.5741L42.3779 8.58734C43.8857 8.58734 45.0972 7.36444 45.0972 5.85956C45.0972 4.35449 43.8857 3.13129 42.3779 3.13129L31.6431 3.13129L31.6431 17L28.3999 17L28.3999 0.160889L42.5933 0.160889C45.7437 0.160889 48.3013 2.71423 48.3013 5.85907ZM119.301 14.0298L131 14.0298L129.088 16.9995L119.086 16.9995C114.428 16.9995 110.645 13.2368 110.645 8.58685C110.645 3.93713 114.428 0.160889 119.086 0.160889L130.744 0.160889L128.82 3.13129L119.302 3.13129C116.811 3.13129 114.698 4.81085 114.051 7.09552L129.829 7.09552L127.917 10.0654L114.051 10.0654C114.697 12.3635 116.811 14.0297 119.301 14.0298ZM96.2673 14.0296L96.2673 0.161133L93.0229 0.161133L93.0229 15.3871C93.0229 15.8036 93.1846 16.207 93.4941 16.516C93.8037 16.8251 94.2209 16.9998 94.6787 16.9998L109.474 16.9998L111.385 14.0298L96.2671 14.0298L96.2673 14.0296ZM8.43579 16.9998C3.77905 17 0 13.2371 0 8.58734C0 3.93738 3.77905 0.161438 8.43579 0.161438L18.2402 0.161438C22.8979 0.161438 26.6741 3.93738 26.6741 8.58734C26.6741 13.2371 22.8979 16.9998 18.24 16.9998L8.43579 16.9998ZM79.6279 16.9998C74.9705 16.9998 71.1873 13.2371 71.1873 8.58734C71.1873 3.93738 74.9705 0.161438 79.6279 0.161438L91.2732 0.161438L89.3748 3.13129L79.8435 3.13129C76.8279 3.13129 74.3779 5.57709 74.3779 8.58734C74.3779 11.5974 76.8279 14.0298 79.8435 14.0298L91.5422 14.0298L89.6304 16.9998L79.6279 16.9998ZM23.4824 8.5871C23.4824 11.5974 21.0391 14.0298 18.0222 14.0298L8.65234 14.0298C5.63672 14.0298 3.19214 11.5974 3.19214 8.58734C3.19214 5.57709 5.63672 3.13129 8.65259 3.13129L18.0222 3.13129C21.0391 3.13129 23.4824 5.57709 23.4824 8.5871Z" clip-rule="evenodd" fill="#FFFFFF" fill-opacity="1.000000" fill-rule="evenodd"/>
</svg>
